<?xml version="1.0" standalone="no"?>
<!DOCTYPE svg PUBLIC "-//W3C//DTD SVG 20010904//EN"
 "http://www.w3.org/TR/2001/REC-SVG-20010904/DTD/svg10.dtd">
<svg version="1.0" xmlns="http://www.w3.org/2000/svg"
 width="4262.000000pt" height="4262.000000pt" viewBox="0 0 4262.000000 4262.000000"
 preserveAspectRatio="xMidYMid meet">

<g transform="translate(0.000000,4262.000000) scale(0.100000,-0.100000)"
fill="#000000" stroke="none">
<path d="M8340 35989 c-525 -38 -940 -181 -1385 -480 -174 -117 -274 -198
-434 -354 -558 -542 -869 -1202 -978 -2075 -25 -203 -25 -731 0 -942 80 -673
279 -1260 617 -1823 120 -199 407 -634 685 -1035 279 -404 363 -546 399 -671
29 -101 64 -441 81 -774 3 -66 10 -194 16 -285 29 -504 78 -650 329 -980 58
-76 144 -189 191 -252 237 -311 536 -808 759 -1260 102 -207 170 -379 170
-431 0 -29 -63 -260 -125 -457 -196 -624 -265 -1230 -265 -2310 0 -727 26
-1050 84 -1050 26 0 51 114 111 515 94 629 121 730 255 943 38 61 78 129 89
151 42 82 63 199 81 456 17 244 41 479 50 489 5 5 49 -20 101 -58 51 -37 104
-69 117 -73 60 -15 204 102 297 242 95 142 143 274 152 410 4 76 2 99 -16 146
-42 112 -156 203 -253 203 -40 0 -58 -7 -118 -49 -39 -26 -135 -107 -212 -178
l-140 -130 4 319 c6 376 9 392 114 616 82 177 167 385 274 678 162 441 301
739 549 1175 154 270 301 557 301 587 0 10 -6 18 -12 18 -17 0 -116 -106 -241
-259 -410 -499 -659 -875 -812 -1226 -50 -114 -153 -407 -185 -525 -6 -23 -13
-40 -15 -38 -3 2 -30 121 -61 264 -133 612 -194 740 -530 1109 -407 446 -510
610 -578 917 -42 189 -50 293 -50 593 1 426 37 655 116 741 98 106 176 78 319
-115 90 -121 162 -257 185 -350 19 -76 15 -190 -11 -301 -20 -89 -17 -184 14
-430 31 -252 71 -362 160 -442 138 -124 398 -150 601 -61 93 41 143 79 197
150 104 139 246 402 284 525 54 183 71 213 333 610 96 146 189 291 207 323 37
66 32 75 -43 75 -65 0 -138 -30 -194 -79 -26 -23 -56 -41 -67 -41 -11 0 -38
19 -60 42 -50 53 -127 157 -127 172 0 6 50 43 110 81 61 39 150 95 198 126
146 93 286 213 523 449 213 213 671 695 747 788 19 23 32 45 29 49 -4 3 -82
-45 -174 -106 -255 -172 -499 -284 -733 -338 -168 -38 -674 -10 -857 48 -77
25 -17 41 249 69 106 12 238 30 293 41 392 81 769 248 1347 594 174 104 315
191 314 192 -1 2 -54 -4 -116 -12 -270 -36 -425 -19 -951 104 -219 51 -655
139 -904 184 -77 13 -156 31 -175 40 l-35 15 37 16 c78 34 544 98 943 131 736
59 841 70 1019 106 99 20 156 41 156 59 0 10 -46 17 -165 24 -211 13 -558 113
-1156 332 l-256 94 -349 -15 c-765 -32 -855 -37 -1024 -51 -96 -9 -193 -18
-215 -20 -22 -3 -47 0 -55 6 -26 18 20 45 156 89 291 95 872 224 1292 286 398
59 572 101 572 139 0 6 -38 29 -85 50 -49 22 -102 55 -125 78 -57 54 -135 102
-275 168 -157 75 -294 127 -419 160 -110 29 -110 29 19 54 116 23 326 35 785
46 384 9 489 17 447 33 -30 12 -358 45 -792 81 -654 55 -919 95 -970 146 -19
21 -19 22 -1 35 36 27 244 67 511 99 300 36 483 48 830 52 200 3 364 9 369 14
28 28 -81 108 -256 186 -315 141 -729 258 -1398 395 -275 57 -509 114 -525
130 -21 21 24 29 178 29 350 0 805 -78 1278 -219 282 -84 449 -117 449 -90 0
57 -492 410 -745 534 -253 124 -665 243 -1020 297 -133 19 -425 17 -560 -6
-637 -105 -1200 -527 -1498 -1122 -101 -202 -152 -369 -187 -608 -41 -274 -43
-693 -5 -953 44 -300 210 -811 417 -1278 168 -381 332 -655 787 -1310 158
-228 211 -312 211 -332 0 -54 -134 53 -382 303 -265 269 -427 459 -638 749
-398 548 -693 1171 -769 1625 -81 484 -79 1258 5 1595 24 96 83 272 129 386
319 782 969 1387 1695 1575 418 109 1044 72 1515 -89 576 -197 1045 -480 1597
-964 151 -132 223 -199 568 -529 327 -313 451 -422 605 -539 151 -114 252
-174 525 -310 282 -141 387 -199 503 -278 118 -80 141 -111 135 -180 -3 -29
-19 -85 -38 -127 -43 -95 -44 -140 -6 -197 16 -24 37 -43 46 -43 20 0 60 87
110 240 35 106 60 158 92 186 39 36 439 216 563 254 115 35 269 98 460 187
319 150 534 243 641 279 90 30 113 34 159 29 60 -8 50 -15 148 99 72 83 311
256 354 256 28 0 7 -27 -121 -158 -175 -179 -195 -220 -133 -266 21 -15 47
-22 100 -24 165 -8 295 82 624 433 171 183 279 279 412 369 171 116 455 241
871 384 674 231 1090 327 1908 437 836 112 1325 154 1907 162 698 10 1030 -19
1920 -168 1021 -171 1477 -293 2127 -572 528 -227 791 -405 1112 -753 171
-185 336 -346 379 -369 l37 -20 45 24 c61 32 160 124 192 178 25 42 25 46 11
77 -15 30 -78 117 -150 208 -17 21 -29 41 -26 44 11 10 45 -14 176 -123 165
-138 251 -201 381 -280 213 -130 457 -242 814 -373 347 -128 687 -314 726
-397 8 -15 19 -39 25 -52 31 -67 263 -297 290 -288 23 8 17 41 -15 84 -73 102
-45 198 100 342 100 99 213 182 429 313 619 375 684 425 1237 954 612 584 931
844 1349 1101 764 469 1519 624 2231 456 577 -135 1100 -508 1441 -1024 163
-247 315 -604 403 -940 66 -257 85 -458 85 -904 1 -429 -21 -625 -109 -960
-131 -505 -444 -1122 -760 -1500 -235 -282 -847 -884 -954 -940 -29 -14 -31
-14 -31 1 0 24 25 62 207 316 702 978 1096 1815 1239 2633 27 149 29 178 28
425 0 222 -4 288 -22 410 -91 590 -297 1026 -639 1350 -313 296 -713 448
-1355 515 -198 20 -313 19 -455 -5 -364 -62 -720 -205 -1038 -418 -199 -133
-478 -335 -483 -350 -10 -32 133 0 416 92 294 96 401 115 797 137 248 14 720
18 732 6 25 -25 -120 -66 -347 -98 -74 -10 -218 -30 -320 -44 -461 -64 -717
-137 -1110 -314 -255 -115 -440 -245 -402 -283 6 -6 71 -1 178 13 126 17 215
23 349 23 266 -1 384 -31 552 -138 64 -40 135 -56 267 -57 56 -1 114 -4 130
-8 28 -6 23 -9 -60 -48 -123 -58 -219 -77 -545 -113 -410 -45 -1019 -159
-1019 -191 0 -11 39 -8 445 37 370 41 543 51 603 35 24 -7 42 -18 42 -26 0 -8
-51 -47 -112 -88 -62 -42 -138 -97 -168 -123 -96 -83 -258 -182 -472 -288
l-208 -103 313 -6 c419 -8 650 -38 1057 -138 183 -45 847 -256 836 -266 -4 -4
-555 48 -766 72 -74 9 -232 19 -350 22 -440 11 -735 -48 -1099 -217 -297 -138
-634 -219 -911 -220 -96 0 -160 -9 -160 -21 0 -55 423 -112 1185 -159 319 -20
511 -38 625 -61 64 -13 202 -68 195 -79 -2 -4 -69 -10 -147 -13 -187 -9 -338
-41 -312 -67 5 -5 69 -12 142 -16 72 -4 132 -10 132 -14 0 -4 -33 -16 -72 -28
-141 -40 -150 -42 -898 -152 -283 -41 -457 -53 -652 -45 -105 5 -168 4 -168
-2 0 -19 127 -131 205 -183 77 -50 134 -82 385 -220 63 -35 176 -101 250 -148
296 -185 440 -231 795 -252 285 -17 440 -29 458 -36 24 -9 11 -23 -38 -45
-104 -46 -364 -79 -625 -79 -374 0 -484 36 -835 272 -108 72 -199 128 -202
124 -8 -8 464 -484 742 -748 228 -218 362 -331 487 -412 103 -67 154 -91 343
-158 133 -47 215 -88 215 -107 0 -5 -28 -14 -62 -21 -34 -6 -101 -29 -148 -50
-109 -50 -188 -70 -268 -70 l-64 0 64 -72 c79 -90 98 -117 98 -142 0 -28 -51
-16 -134 33 -39 22 -72 39 -74 37 -5 -6 21 -54 90 -163 116 -183 239 -407 375
-683 161 -324 196 -380 300 -481 263 -255 552 -326 805 -198 206 104 251 302
214 949 -9 157 -16 306 -16 332 l0 47 169 159 c189 178 324 290 360 299 37 9
124 -88 148 -165 34 -107 19 -891 -23 -1199 -28 -215 -80 -355 -182 -500 -28
-39 -161 -186 -294 -325 -254 -265 -392 -420 -447 -500 -103 -153 -249 -640
-276 -920 -11 -112 -18 -102 -128 178 -164 416 -396 884 -560 1129 -120 179
-487 555 -542 555 -12 0 56 -113 180 -295 261 -386 369 -623 710 -1560 237
-652 245 -686 252 -1035 7 -356 -12 -501 -60 -461 -8 6 -36 55 -62 107 -89
181 -289 347 -396 330 -130 -21 -269 -173 -269 -296 0 -195 254 -641 429 -752
85 -54 145 -30 250 98 34 41 65 74 70 74 12 0 19 -84 26 -305 12 -368 37 -570
88 -707 14 -37 55 -109 90 -161 41 -60 76 -126 96 -183 62 -172 130 -490 222
-1051 24 -145 46 -263 50 -263 14 0 101 203 118 280 53 226 54 592 5 1300 -48
704 -115 1060 -370 1973 l-75 268 259 507 c424 828 506 965 771 1282 328 392
457 675 515 1135 23 174 36 394 36 602 0 220 15 411 40 509 47 181 115 299
359 616 582 758 973 1547 1166 2353 76 315 95 495 102 940 10 615 -28 898
-178 1350 -110 331 -280 638 -559 1010 -183 244 -323 386 -538 546 -965 724
-2115 777 -3317 155 -258 -134 -553 -316 -760 -470 -228 -170 -380 -305 -780
-695 -655 -637 -970 -869 -1361 -997 -221 -72 -522 -105 -770 -85 -389 33
-681 141 -1749 651 -972 464 -1331 610 -2165 881 -1256 409 -2539 580 -4095
548 -1595 -34 -3071 -365 -4663 -1048 -274 -117 -523 -233 -947 -439 -728
-353 -1037 -467 -1465 -543 -429 -75 -690 -41 -1076 141 -326 154 -451 250
-1019 785 -541 510 -815 735 -1215 1000 -224 148 -352 222 -564 326 -589 290
-1170 411 -1766 368z m1610 -7434 c0 -32 -40 -95 -60 -95 -28 0 -15 103 16
135 22 22 44 2 44 -40z"/>
<path d="M20737 34739 c-127 -30 -277 -172 -277 -264 0 -65 96 -182 191 -232
49 -25 63 -28 154 -28 86 0 107 3 150 25 104 51 165 146 165 254 0 52 -27 125
-58 160 -66 74 -211 112 -325 85z"/>
<path d="M22088 34741 c-90 -13 -126 -42 -178 -143 -38 -74 -70 -189 -73 -266
-3 -80 18 -103 126 -137 194 -62 368 -36 487 72 51 45 123 154 144 216 24 70
21 113 -9 143 -80 80 -330 137 -497 115z"/>
<path d="M19113 34665 c-274 -50 -468 -201 -490 -382 -12 -103 67 -269 158
-334 43 -30 125 -36 208 -15 137 35 569 258 673 347 43 36 47 43 36 62 -33 63
-269 272 -355 316 -49 24 -119 26 -230 6z"/>
<path d="M23395 34642 c-60 -21 -117 -65 -175 -135 -87 -107 -110 -199 -69
-283 26 -56 159 -180 253 -239 117 -72 173 -89 296 -90 99 0 110 2 171 32 200
99 259 285 158 503 -56 121 -159 197 -299 219 -104 17 -277 13 -335 -7z"/>
<path d="M24581 34315 c-83 -26 -141 -102 -161 -213 -25 -142 19 -211 211
-325 162 -97 259 -118 346 -76 110 53 170 209 128 330 -24 67 -58 110 -133
166 -81 61 -152 98 -229 118 -69 18 -104 18 -162 0z"/>
<path d="M18064 34211 c-207 -73 -426 -202 -475 -279 -55 -87 -29 -183 78
-284 71 -66 125 -91 181 -85 98 11 371 172 506 298 88 82 109 118 93 163 -14
42 -142 167 -198 194 -59 29 -87 28 -185 -7z"/>
<path d="M19995 33937 c-105 -28 -145 -64 -212 -193 -34 -65 -153 -387 -153
-414 0 -4 35 -20 78 -36 61 -22 93 -28 157 -27 140 1 327 42 389 86 35 25 79
116 136 286 52 153 62 229 32 259 -11 11 -38 26 -59 32 -58 18 -308 22 -368 7z"/>
<path d="M21305 33930 c-49 -10 -114 -27 -142 -38 -78 -30 -179 -106 -229
-174 -85 -116 -81 -184 16 -280 109 -106 282 -172 460 -172 93 -1 111 2 160
25 90 43 285 227 364 343 20 30 23 42 15 57 -24 46 -278 195 -406 240 -68 23
-120 23 -238 -1z"/>
<path d="M22482 33851 c-69 -24 -158 -86 -194 -135 -21 -29 -28 -50 -28 -86 0
-63 33 -113 151 -227 202 -197 282 -238 391 -199 68 25 182 100 245 162 67 67
84 109 64 165 -26 76 -139 187 -267 264 -119 72 -255 93 -362 56z"/>
<path d="M16985 33554 c-185 -44 -387 -233 -455 -427 -47 -133 -7 -224 126
-291 175 -88 385 -49 529 98 87 89 127 174 133 282 6 108 -14 167 -79 238 -27
30 -69 64 -92 75 -43 20 -126 33 -162 25z"/>
<path d="M25824 33512 c-22 -11 -69 -45 -104 -77 -36 -31 -99 -81 -142 -111
-81 -58 -118 -104 -118 -149 0 -90 141 -216 318 -283 58 -23 83 -26 192 -26
115 -1 130 1 181 25 118 55 173 143 174 274 0 66 -5 90 -26 136 -35 74 -113
150 -196 191 -58 28 -80 33 -153 36 -67 2 -94 -2 -126 -16z"/>
<path d="M24265 33491 c-134 -35 -248 -173 -262 -314 -10 -116 42 -254 174
-462 91 -142 141 -243 153 -307 16 -82 42 -115 108 -135 47 -15 96 -18 292
-18 290 0 332 8 402 73 131 123 196 406 126 550 -26 54 -198 236 -318 336
-149 125 -294 211 -430 255 -71 24 -197 35 -245 22z"/>
<path d="M18385 33462 c-118 -36 -352 -167 -476 -267 -91 -74 -157 -165 -240
-330 -71 -142 -109 -246 -109 -294 1 -77 90 -182 207 -244 111 -58 220 -80
383 -75 125 3 139 5 195 32 158 77 426 428 534 698 56 138 39 194 -98 328
-151 147 -265 191 -396 152z"/>
<path d="M20445 33027 c-97 -32 -158 -89 -203 -186 -37 -79 -38 -194 -2 -265
48 -96 125 -130 255 -115 84 11 179 53 230 104 21 21 51 68 68 104 27 57 31
77 32 152 0 79 -2 88 -29 123 -44 58 -121 89 -226 93 -52 2 -101 -2 -125 -10z"/>
<path d="M21765 32977 c-19 -15 -19 -16 -2 -71 28 -86 101 -224 154 -291 60
-74 155 -139 225 -155 137 -31 238 68 238 232 0 77 -17 115 -75 166 -78 68
-243 120 -415 129 -84 4 -109 2 -125 -10z"/>
<path d="M23180 32935 c-126 -42 -270 -222 -301 -379 -10 -49 -9 -58 20 -128
78 -187 314 -551 436 -674 101 -102 154 -129 250 -129 56 1 80 6 121 27 116
61 258 212 317 336 75 160 35 322 -131 531 -122 154 -352 355 -459 402 -62 28
-190 35 -253 14z"/>
<path d="M19513 32819 c-76 -13 -207 -63 -286 -110 -146 -87 -279 -245 -327
-389 -31 -92 -26 -240 11 -320 59 -126 263 -292 407 -330 207 -54 592 262 688
565 44 139 28 296 -42 407 -95 150 -249 211 -451 177z"/>
<path d="M16003 32680 c-212 -56 -424 -187 -554 -342 -133 -160 -354 -542
-366 -634 -4 -31 -1 -45 13 -59 16 -16 30 -17 134 -11 213 11 378 48 495 109
157 84 277 279 379 620 52 172 59 282 20 321 -19 20 -32 19 -121 -4z"/>
<path d="M26848 32650 c-50 -9 -74 -32 -87 -85 -24 -96 -10 -168 64 -337 219
-492 539 -714 825 -570 70 35 92 76 92 167 -1 197 -179 488 -402 657 -150 114
-373 190 -492 168z"/>
<path d="M13277 32482 c-21 -23 -31 -97 -19 -137 l8 -29 20 39 c10 22 31 46
47 53 33 16 34 36 2 67 -29 30 -37 31 -58 7z"/>
<path d="M16905 32354 c-106 -88 -423 -408 -499 -504 -216 -273 -244 -450
-103 -657 65 -96 160 -177 276 -237 128 -66 318 -114 380 -96 27 7 250 185
403 321 171 151 246 362 199 559 -33 141 -155 332 -311 490 -107 107 -189 168
-241 176 -30 5 -41 -1 -104 -52z"/>
<path d="M14583 32355 c-75 -23 -136 -67 -243 -174 -180 -180 -463 -535 -614
-768 -197 -304 -267 -524 -203 -638 41 -75 203 -126 350 -111 119 12 157 46
411 365 319 400 369 473 401 597 22 84 75 483 75 562 0 78 -12 105 -60 143
-46 36 -67 40 -117 24z"/>
<path d="M25804 32278 c-81 -27 -216 -166 -272 -281 -63 -128 -85 -286 -62
-463 25 -202 82 -343 182 -450 108 -115 247 -165 458 -167 201 -2 325 38 412
131 99 106 129 207 135 468 6 235 -2 271 -77 356 -214 240 -628 457 -776 406z"/>
<path d="M28229 32245 c-69 -22 -84 -44 -83 -124 3 -164 111 -469 255 -719
185 -321 456 -649 633 -766 211 -140 301 -77 313 219 8 196 -9 242 -205 530
-212 313 -444 607 -581 738 -137 130 -213 158 -332 122z"/>
<path d="M22191 32145 c-117 -33 -236 -123 -358 -270 -76 -92 -128 -139 -173
-157 -44 -17 -132 -10 -220 18 -156 49 -273 119 -386 232 -88 87 -138 106
-269 106 -207 0 -421 -105 -593 -289 -82 -88 -138 -168 -164 -239 -24 -63 -21
-162 7 -221 28 -60 299 -326 443 -433 137 -103 207 -142 252 -142 58 0 212 93
402 242 201 158 276 208 313 208 19 0 55 -28 138 -108 157 -152 284 -232 441
-281 126 -39 251 -20 421 64 111 55 201 122 291 217 330 348 287 726 -110 960
-153 90 -319 126 -435 93z"/>
<path d="M24487 31820 c-96 -24 -166 -89 -227 -209 -94 -188 -150 -484 -107
-566 24 -47 112 -124 170 -149 131 -58 345 -74 469 -36 132 40 268 160 329
288 26 54 34 83 37 148 4 72 1 89 -22 139 -33 73 -102 159 -211 264 -113 108
-148 124 -290 127 -60 2 -127 -1 -148 -6z"/>
<path d="M18308 31810 c-15 -4 -64 -28 -110 -51 -123 -65 -230 -174 -292 -299
-86 -173 -96 -317 -31 -445 40 -77 165 -218 218 -244 137 -66 573 41 731 180
75 66 98 162 72 290 -52 245 -212 458 -417 554 -55 25 -118 31 -171 15z"/>
<path d="M27304 31236 c-81 -36 -140 -171 -132 -304 6 -96 15 -115 170 -344
221 -326 290 -394 461 -456 243 -88 379 -50 448 125 19 49 23 78 23 183 1 123
1 126 -33 190 -41 80 -130 168 -205 205 -35 17 -83 30 -132 36 -42 4 -87 15
-100 24 -13 8 -37 41 -53 73 -47 94 -152 186 -274 242 -78 36 -133 44 -173 26z"/>
<path d="M15570 31183 c-80 -14 -125 -38 -184 -97 -61 -62 -74 -79 -159 -213
-25 -39 -57 -79 -70 -88 -23 -15 -27 -15 -58 4 -19 12 -45 21 -59 21 -137 -1
-330 -260 -330 -443 0 -64 21 -106 81 -162 127 -119 373 -162 509 -90 96 51
476 449 597 625 17 25 51 84 77 131 l46 86 -79 76 c-104 99 -184 140 -296 150
-27 3 -61 3 -75 0z"/>
<path d="M23124 31040 c-142 -37 -203 -82 -251 -185 -28 -60 -28 -61 -28 -260
1 -218 12 -291 60 -385 30 -59 92 -105 164 -122 140 -32 334 74 491 269 68 84
230 326 230 344 0 17 -123 170 -182 225 -69 66 -111 86 -226 113 -113 25 -165
26 -258 1z"/>
<path d="M19604 30976 c-112 -35 -245 -133 -302 -223 -97 -152 -37 -462 117
-606 31 -29 62 -49 87 -54 75 -16 402 -9 484 10 213 49 277 166 217 398 -62
240 -192 414 -351 469 -65 23 -188 26 -252 6z"/>
<path d="M17553 30525 c-77 -21 -141 -57 -224 -123 -85 -67 -143 -133 -189
-215 -44 -79 -40 -128 22 -257 161 -333 435 -453 713 -312 76 38 109 67 137
119 35 64 50 144 49 262 -1 237 -102 437 -258 508 -70 32 -173 40 -250 18z"/>
<path d="M25285 30534 c-70 -12 -153 -37 -198 -62 -177 -96 -316 -407 -278
-620 30 -165 134 -241 347 -250 133 -5 241 18 338 72 74 42 148 117 167 172
23 65 18 319 -9 426 -31 126 -75 205 -134 242 -27 18 -171 29 -233 20z"/>
<path d="M29995 30471 c-51 -24 -119 -94 -141 -146 -24 -57 -21 -156 6 -230
31 -84 119 -212 189 -277 144 -134 287 -141 378 -20 63 83 79 199 43 313 -39
127 -185 306 -292 358 -55 26 -129 27 -183 2z"/>
<path d="M12530 30433 c-96 -34 -200 -180 -269 -376 -49 -141 -44 -163 66
-268 83 -81 138 -110 218 -116 87 -7 159 23 239 98 73 68 119 147 142 245 40
171 -30 349 -160 410 -61 29 -166 31 -236 7z"/>
<path d="M24054 30416 c-28 -19 -69 -55 -91 -80 -87 -99 -163 -293 -163 -416
0 -63 3 -72 31 -105 110 -125 537 -202 626 -112 66 66 94 284 53 419 -43 144
-124 247 -233 298 -90 43 -155 42 -223 -4z"/>
<path d="M26485 30416 c-47 -21 -90 -61 -156 -149 -78 -103 -109 -168 -109
-229 0 -50 23 -78 65 -78 45 -1 112 -45 199 -130 108 -106 140 -121 247 -121
118 0 191 36 230 113 71 139 32 354 -85 469 -61 60 -125 95 -222 119 -89 23
-127 24 -169 6z"/>
<path d="M16465 30354 c-94 -20 -224 -83 -312 -151 -190 -144 -243 -337 -126
-456 95 -98 311 -149 412 -97 85 43 218 188 284 310 94 173 87 329 -17 383
-50 26 -152 31 -241 11z"/>
<path d="M18570 30355 c-129 -42 -227 -179 -237 -333 -10 -149 30 -257 119
-323 94 -68 228 -119 314 -119 54 0 125 36 215 107 77 62 164 166 175 210 25
97 -56 250 -189 361 -105 86 -291 132 -397 97z"/>
<path d="M13578 30296 c-137 -47 -198 -86 -318 -206 -180 -179 -357 -433 -501
-717 -120 -237 -141 -321 -100 -401 55 -108 230 -203 376 -204 44 0 73 5 90
16 122 80 440 515 499 683 8 22 33 142 56 265 22 122 54 290 70 372 17 82 30
162 30 177 0 59 -63 63 -202 15z"/>
<path d="M29324 30266 c-57 -27 -143 -85 -192 -130 -61 -57 -67 -76 -66 -226
2 -167 25 -251 120 -450 189 -393 343 -613 476 -680 51 -25 73 -30 134 -30 87
0 177 26 259 75 123 74 177 148 176 244 0 115 -66 227 -242 416 -120 130 -221
273 -319 455 -124 230 -178 308 -230 335 -39 20 -56 19 -116 -9z"/>
<path d="M20740 30220 c-20 -20 -22 -28 -16 -82 5 -45 3 -74 -10 -116 -24 -74
-73 -146 -102 -150 -65 -9 -24 -66 88 -122 93 -47 170 -107 200 -155 47 -76
233 -204 321 -220 47 -9 59 7 69 92 20 159 100 288 187 302 84 15 182 -22 266
-99 63 -58 108 -135 109 -188 1 -78 -39 -120 -188 -199 -87 -46 -108 -68 -83
-84 28 -19 98 -3 156 37 143 99 206 138 313 190 151 73 289 166 391 261 96 91
139 146 139 180 0 79 -148 238 -286 307 -82 41 -188 31 -404 -39 -117 -37
-186 -48 -305 -48 -136 0 -227 17 -470 89 -232 68 -338 81 -375 44z"/>
<path d="M14340 29881 c-119 -44 -161 -70 -226 -136 -135 -137 -132 -274 7
-387 96 -78 202 -112 329 -106 71 3 94 9 133 31 102 60 123 127 88 280 -45
193 -149 348 -232 347 -13 -1 -58 -14 -99 -29z"/>
<path d="M28354 29816 c-132 -59 -171 -280 -84 -465 52 -109 112 -166 193
-185 76 -18 193 67 249 181 26 52 32 77 32 128 0 129 -106 278 -230 324 -75
29 -123 34 -160 17z"/>
<path d="M27527 29656 c-131 -47 -287 -228 -344 -399 -25 -76 -27 -94 -27
-242 0 -269 41 -428 140 -534 81 -88 246 -192 509 -321 146 -72 236 -102 270
-90 48 17 64 119 65 410 0 338 -20 504 -87 700 -97 289 -173 385 -315 397 -76
7 -118 26 -118 54 0 12 -10 23 -26 29 -14 6 -26 10 -27 10 -1 -1 -19 -7 -40
-14z"/>
<path d="M20038 29626 c-146 -44 -254 -130 -313 -250 -109 -220 -43 -391 195
-511 86 -43 191 -75 249 -75 35 0 59 8 93 29 145 92 271 419 214 556 -16 38
-169 202 -230 246 -49 36 -99 37 -208 5z"/>
<path d="M22838 29601 c-130 -42 -317 -200 -377 -319 -79 -157 -55 -294 72
-415 158 -150 302 -157 476 -23 84 65 252 244 285 306 55 101 45 233 -24 328
-85 118 -276 172 -432 123z"/>
<path d="M15183 29552 c-177 -53 -289 -156 -332 -307 -6 -22 -16 -94 -21 -160
-10 -127 -43 -261 -84 -343 -70 -138 -94 -331 -61 -488 10 -47 25 -94 34 -106
20 -24 46 -26 242 -14 211 14 227 -8 94 -129 -100 -90 -111 -123 -40 -115 32
3 127 55 186 101 274 215 588 708 606 954 5 68 3 74 -61 234 -37 91 -80 186
-97 212 -41 64 -100 116 -168 147 -74 35 -206 40 -298 14z"/>
<path d="M23680 29514 c-91 -28 -239 -165 -292 -268 -30 -58 -14 -101 68 -182
87 -85 208 -147 291 -148 120 -1 235 70 290 178 70 135 -5 355 -142 417 -49
22 -150 24 -215 3z"/>
<path d="M25994 29486 c-95 -23 -166 -85 -211 -182 -51 -113 -48 -233 9 -353
34 -72 157 -208 224 -247 62 -36 141 -48 241 -34 151 20 258 76 298 155 37 75
22 322 -25 416 -28 54 -147 160 -222 197 -68 33 -178 62 -233 61 -16 0 -53 -6
-81 -13z"/>
<path d="M19060 29480 c-107 -19 -224 -85 -321 -182 -64 -64 -81 -100 -66
-142 27 -82 122 -193 187 -220 54 -22 165 -29 273 -17 193 22 243 80 235 270
-5 106 -27 173 -76 224 -55 58 -141 83 -232 67z"/>
<path d="M16520 29364 c-113 -30 -221 -132 -255 -242 -61 -193 72 -465 258
-528 75 -25 187 -16 262 20 66 32 172 128 242 218 105 136 110 228 20 336
-140 167 -347 244 -527 196z"/>
<path d="M30506 29296 c-42 -88 -45 -237 -7 -347 30 -88 115 -248 190 -362 76
-113 111 -148 139 -140 24 6 120 -95 249 -262 129 -168 188 -237 216 -252 54
-30 178 -3 222 49 14 16 25 35 25 41 0 22 -74 159 -154 287 -176 281 -468 679
-600 817 -77 81 -229 203 -253 203 -6 0 -18 -15 -27 -34z"/>
<path d="M12173 29254 c-85 -42 -326 -331 -532 -638 -191 -285 -285 -459 -297
-548 -13 -91 55 -228 113 -228 59 0 100 43 238 245 37 55 133 188 213 295 258
345 358 535 370 707 6 88 -3 138 -29 164 -23 23 -34 23 -76 3z"/>
<path d="M24840 29243 c-63 -11 -93 -28 -144 -85 -65 -71 -156 -243 -156 -293
0 -94 208 -550 332 -726 108 -154 309 -186 426 -66 128 131 221 522 191 797
-18 165 -64 231 -203 295 -132 61 -335 97 -446 78z"/>
<path d="M17805 29227 c-103 -34 -191 -98 -252 -184 -147 -206 -174 -544 -63
-788 57 -127 175 -248 267 -275 88 -26 183 20 310 153 148 155 233 287 253
396 14 76 12 262 -4 353 -29 159 -101 260 -230 319 -60 28 -85 33 -156 36 -52
2 -101 -2 -125 -10z"/>
<path d="M20635 29101 c-32 -19 -89 -80 -82 -87 2 -3 34 7 71 21 36 14 86 25
110 25 79 0 227 -64 282 -121 l28 -29 -21 -43 c-11 -23 -64 -89 -118 -147
-114 -123 -145 -177 -145 -252 0 -79 38 -146 145 -254 149 -149 287 -201 376
-141 110 74 184 268 159 422 -25 159 -81 245 -229 357 -29 22 -77 62 -106 88
-59 54 -161 106 -294 150 -103 35 -135 37 -176 11z"/>
<path d="M14003 28854 c-151 -39 -282 -164 -283 -268 0 -41 65 -101 132 -121
75 -22 201 -19 284 6 54 17 79 31 116 68 80 80 77 122 -15 218 -98 103 -143
121 -234 97z"/>
<path d="M28759 28821 c-50 -16 -69 -33 -95 -83 -34 -66 -30 -139 10 -221 56
-115 123 -155 237 -143 144 15 249 106 249 218 0 100 -75 188 -190 222 -56 17
-166 20 -211 7z"/>
<path d="M21994 28734 c-70 -37 -186 -128 -240 -187 -42 -47 -46 -55 -42 -92
7 -54 90 -249 139 -325 45 -71 80 -90 163 -90 191 0 449 176 481 328 12 56
-34 132 -149 247 -60 60 -120 110 -147 123 -64 31 -142 30 -205 -4z"/>
<path d="M18742 28507 c-55 -58 -87 -205 -80 -368 4 -118 27 -168 118 -260 92
-92 160 -124 265 -124 68 0 89 4 139 29 73 36 136 97 173 168 24 46 28 65 28
139 0 82 -2 88 -37 141 -49 75 -84 90 -228 98 -63 4 -128 13 -143 21 -18 8
-43 39 -68 80 -22 38 -49 75 -61 84 -33 22 -81 19 -106 -8z"/>
<path d="M19913 28490 c-100 -21 -180 -97 -241 -230 -51 -111 -29 -245 58
-344 54 -61 101 -80 200 -81 77 0 90 3 139 31 133 75 208 331 142 480 -50 114
-168 171 -298 144z"/>
<path d="M23000 28489 c-78 -13 -121 -38 -148 -84 -20 -34 -22 -51 -19 -111 7
-132 101 -279 234 -366 83 -55 120 -68 192 -68 72 1 125 25 177 82 51 56 67
102 62 181 -11 163 -164 330 -336 366 -60 12 -84 12 -162 0z"/>
<path d="M23938 28466 c-61 -22 -139 -77 -169 -120 -41 -56 -59 -125 -59 -231
0 -114 25 -171 108 -246 85 -75 169 -113 251 -113 83 0 140 26 220 99 161 150
167 345 15 499 -81 83 -118 98 -294 122 -19 2 -52 -2 -72 -10z"/>
<path d="M13545 28386 c-120 -30 -221 -96 -297 -194 -65 -83 -95 -139 -113
-211 -17 -62 -17 -63 10 -116 48 -99 224 -243 323 -266 54 -12 139 7 228 50
142 70 198 154 211 317 7 77 -8 146 -53 242 -35 78 -88 142 -135 167 -39 21
-118 26 -174 11z"/>
<path d="M12595 28289 c-182 -93 -367 -235 -406 -310 -41 -81 -10 -159 95
-234 81 -57 132 -75 215 -75 53 0 79 6 131 31 82 38 203 159 242 241 79 162
54 304 -64 362 -74 37 -116 34 -213 -15z"/>
<path d="M29235 28295 c-75 -30 -136 -94 -156 -162 -19 -66 -16 -213 5 -293
64 -236 191 -321 411 -276 99 21 157 53 181 103 37 77 14 316 -41 429 -29 59
-143 172 -205 204 -53 27 -121 25 -195 -5z"/>
<path d="M29985 28240 c-75 -13 -128 -37 -161 -71 -41 -43 -39 -106 6 -218 74
-184 171 -264 325 -265 73 -1 87 3 162 38 114 54 127 70 121 144 -15 165 -202
361 -358 376 -25 3 -67 1 -95 -4z"/>
<path d="M27128 28168 c-98 -114 -173 -190 -197 -199 -35 -14 -54 4 -109 99
-53 95 -86 121 -129 107 -63 -22 -116 -201 -95 -323 32 -189 175 -336 392
-404 61 -19 97 -23 195 -23 109 0 125 2 170 26 56 28 107 93 127 162 6 23 12
89 11 147 0 198 -55 311 -206 432 -71 56 -94 52 -159 -24z"/>
<path d="M15780 28181 c-53 -10 -125 -54 -225 -134 -111 -90 -125 -114 -134
-222 -14 -179 15 -358 65 -408 88 -88 251 -46 479 124 61 46 147 107 192 136
46 30 87 63 93 73 22 40 4 173 -41 308 -19 56 -26 66 -57 79 -76 32 -299 58
-372 44z"/>
<path d="M16834 27911 c-171 -115 -311 -272 -347 -391 -9 -30 -40 -95 -68
-145 -75 -130 -123 -236 -157 -350 -17 -55 -47 -152 -66 -215 -45 -147 -122
-303 -243 -494 -152 -238 -193 -346 -193 -508 0 -104 34 -246 80 -339 129
-255 400 -499 554 -499 44 0 53 4 91 43 61 61 80 127 80 282 -1 139 -12 203
-72 415 -83 292 -90 418 -38 645 92 401 259 759 538 1151 129 181 207 304 207
325 0 37 -182 119 -264 119 -34 0 -57 -9 -102 -39z"/>
<path d="M25767 27860 c-58 -10 -92 -31 -111 -68 -24 -48 -28 -88 -12 -126 46
-111 616 -951 814 -1201 31 -38 74 -87 95 -107 l40 -38 -6 -72 c-3 -40 -34
-206 -70 -368 -91 -408 -92 -420 -90 -673 1 -120 4 -221 7 -224 8 -8 205 15
273 33 188 48 328 178 396 369 38 107 51 205 51 375 0 134 -2 163 -21 215 -29
82 -432 867 -556 1085 -117 205 -222 373 -314 502 -150 210 -223 281 -301 292
-83 12 -150 14 -195 6z"/>
<path d="M22350 27723 c-50 -24 -184 -165 -214 -225 -34 -68 -33 -113 2 -169
60 -93 182 -162 291 -162 133 -1 191 70 191 232 -1 238 -128 391 -270 324z"/>
<path d="M20442 27679 c-85 -43 -141 -143 -157 -280 -9 -73 10 -161 41 -198
32 -39 107 -55 228 -49 143 6 240 60 290 160 66 133 1 275 -164 356 -76 37
-177 42 -238 11z"/>
<path d="M21364 27647 c-62 -16 -93 -40 -149 -111 -108 -139 -187 -384 -165
-508 15 -79 195 -262 315 -319 143 -68 270 -11 409 184 89 125 136 258 136
382 -1 95 -24 142 -114 230 -100 99 -193 145 -302 151 -46 2 -101 -2 -130 -9z"/>
<path d="M24700 27611 c-14 -4 -54 -23 -90 -41 -210 -106 -346 -256 -358 -394
-5 -68 29 -138 104 -213 92 -93 162 -110 254 -63 91 47 199 198 246 345 32 97
37 220 12 276 -29 66 -109 109 -168 90z"/>
<path d="M18166 27530 c-59 -11 -76 -39 -76 -120 0 -127 68 -317 139 -384 27
-26 35 -28 81 -23 78 9 164 61 260 157 101 100 150 183 150 253 0 56 -15 72
-83 92 -108 31 -370 45 -471 25z"/>
<path d="M23285 27491 c-122 -32 -177 -59 -260 -128 -150 -124 -238 -319 -201
-447 38 -129 180 -292 311 -357 138 -68 253 -74 398 -19 130 49 294 262 362
469 34 104 -4 236 -109 379 -50 67 -89 87 -229 116 -101 21 -153 19 -272 -13z"/>
<path d="M19329 27490 c-79 -10 -138 -41 -201 -108 -104 -109 -145 -216 -135
-352 17 -232 171 -419 435 -531 66 -28 89 -33 162 -33 78 -1 90 2 146 32 119
65 235 203 275 331 29 92 29 214 0 301 -89 260 -357 402 -682 360z"/>
<path d="M30753 27406 c-99 -75 -281 -268 -308 -328 -80 -177 -9 -540 135
-692 126 -134 348 -150 537 -39 66 39 161 136 185 190 42 96 28 326 -26 437
-59 119 -388 476 -439 476 -14 0 -50 -19 -84 -44z"/>
<path d="M13400 27401 c-14 -4 -44 -18 -67 -29 -134 -69 -223 -277 -193 -450
30 -175 121 -267 276 -280 82 -6 133 18 211 101 202 216 250 447 120 575 -63
62 -124 85 -232 89 -49 1 -101 -1 -115 -6z"/>
<path d="M14470 27403 c-52 -10 -189 -84 -240 -130 -29 -26 -59 -62 -66 -80
-18 -42 -18 -193 0 -259 45 -169 166 -270 322 -267 79 1 139 28 209 94 96 91
142 216 132 360 -8 122 -62 216 -151 261 -41 21 -150 32 -206 21z"/>
<path d="M28102 27395 c-116 -32 -137 -69 -137 -240 0 -109 3 -125 27 -178 35
-75 127 -171 184 -193 81 -31 181 -1 273 82 109 98 137 237 74 365 -46 92
-110 155 -174 168 -68 15 -183 13 -247 -4z"/>
<path d="M29061 27378 c-64 -34 -145 -126 -171 -195 -33 -87 -26 -196 17 -284
60 -121 183 -214 338 -254 164 -42 229 -5 247 144 8 70 7 92 -11 161 -27 107
-91 252 -149 337 -43 61 -52 70 -102 86 -92 29 -120 30 -169 5z"/>
<path d="M11760 27266 c-217 -116 -401 -515 -320 -693 27 -62 149 -179 217
-210 104 -48 307 -42 420 13 132 64 201 226 206 484 2 100 0 108 -28 160 -42
76 -166 198 -240 235 -83 42 -189 46 -255 11z"/>
<path d="M17548 27196 c-121 -26 -222 -140 -275 -311 -15 -49 -18 -94 -18
-245 0 -171 2 -188 22 -230 30 -61 109 -148 177 -195 48 -33 64 -38 127 -43
213 -15 353 73 416 263 68 204 6 547 -123 681 -68 71 -209 106 -326 80z"/>
<path d="M25165 27110 c-31 -12 -146 -139 -183 -202 -57 -95 -84 -190 -89
-308 -10 -206 62 -357 219 -467 52 -35 90 -33 170 8 167 88 297 299 298 484 0
182 -145 409 -295 463 -83 29 -97 32 -120 22z"/>
<path d="M31932 27078 c-17 -18 -38 -49 -46 -69 -27 -64 -48 -211 -49 -334 -1
-151 18 -229 114 -482 84 -223 171 -470 187 -533 21 -83 84 -144 253 -243 53
-31 131 -71 174 -88 67 -27 88 -31 146 -27 84 4 142 40 177 108 21 39 23 55
18 120 -6 87 -47 250 -110 441 -138 418 -335 752 -581 988 -165 157 -222 181
-283 119z"/>
<path d="M27165 27066 c-54 -20 -91 -64 -111 -133 -36 -125 8 -246 140 -379
192 -193 376 -191 476 5 38 75 20 206 -47 334 -66 125 -157 177 -323 183 -68
3 -107 0 -135 -10z"/>
<path d="M15467 27050 c-106 -34 -214 -137 -271 -260 -49 -105 -25 -192 85
-300 58 -57 163 -120 201 -120 92 0 249 191 254 309 2 43 8 60 33 90 81 94 88
164 21 231 -68 68 -202 89 -323 50z"/>
<path d="M10910 26981 c-110 -35 -181 -81 -286 -186 -153 -152 -278 -347 -383
-595 -103 -243 -153 -433 -153 -580 0 -134 23 -193 113 -282 60 -61 71 -68
105 -68 51 0 181 54 280 115 142 88 238 212 324 417 69 167 81 228 90 473 5
121 16 314 25 428 18 221 15 271 -15 287 -25 13 -35 12 -100 -9z"/>
<path d="M20652 26601 c-171 -59 -327 -254 -383 -480 -18 -69 -20 -105 -17
-195 6 -133 30 -206 103 -316 62 -94 207 -239 263 -264 43 -19 43 -19 85 1
132 64 460 422 538 588 68 142 14 350 -132 509 -138 151 -307 209 -457 157z"/>
<path d="M22069 26606 c-59 -16 -92 -40 -178 -132 -114 -123 -192 -304 -175
-407 8 -52 54 -109 219 -272 170 -167 205 -220 205 -311 0 -69 28 -134 73
-167 25 -20 28 -20 69 -4 83 33 251 142 312 203 95 94 138 199 151 370 8 97
-6 252 -31 349 -49 190 -174 327 -339 370 -71 18 -240 19 -306 1z"/>
<path d="M13765 26477 c-82 -37 -110 -122 -103 -307 8 -189 59 -279 179 -314
66 -20 100 -20 172 -1 84 22 147 57 196 110 55 60 73 105 73 182 1 120 -77
220 -228 295 -77 38 -93 42 -172 45 -59 2 -97 -1 -117 -10z"/>
<path d="M28624 26472 c-38 -24 -89 -103 -104 -161 -21 -81 19 -233 84 -322
52 -70 128 -104 228 -103 66 1 87 5 144 34 124 61 264 232 264 322 0 122 -215
233 -475 245 -97 4 -114 2 -141 -15z"/>
<path d="M14754 26259 c-45 -14 -71 -30 -97 -58 -32 -36 -36 -45 -42 -125 -4
-47 -6 -130 -3 -183 3 -84 8 -107 34 -163 69 -144 208 -221 375 -207 86 7 155
37 207 90 55 56 73 104 74 191 0 183 -121 354 -317 447 -72 35 -140 37 -231 8z"/>
<path d="M23650 26199 c-31 -3 -73 -14 -95 -24 -85 -40 -287 -275 -301 -352
-13 -70 55 -158 196 -252 146 -98 312 -154 403 -137 87 16 174 141 204 293 14
74 14 87 0 152 -52 229 -198 343 -407 320z"/>
<path d="M27869 26176 c-165 -67 -270 -181 -326 -350 -22 -70 -27 -103 -31
-243 -3 -116 -1 -163 7 -163 6 0 11 8 11 18 0 9 5 24 10 32 8 12 17 6 54 -33
40 -43 48 -48 82 -45 47 4 63 26 47 68 l-11 30 62 -6 c77 -8 148 11 259 68 97
51 156 109 199 195 63 128 39 281 -57 378 -21 20 -56 46 -79 56 -59 27 -156
25 -227 -5z"/>
<path d="M19233 26146 c-88 -28 -227 -157 -259 -242 -16 -41 -16 -58 -7 -143
26 -221 79 -291 222 -291 72 0 214 40 296 83 76 40 154 117 184 182 29 60 40
214 22 283 -17 62 -63 109 -124 127 -64 19 -274 19 -334 1z"/>
<path d="M13027 26110 c-21 -6 -71 -25 -112 -44 -172 -80 -240 -205 -385 -714
-40 -139 -70 -255 -68 -258 14 -13 354 139 523 234 210 118 345 323 345 525 0
79 -16 129 -58 177 -60 71 -155 102 -245 80z"/>
<path d="M29771 26109 c-56 -12 -113 -59 -143 -119 -46 -93 -72 -203 -72 -316
-1 -96 0 -103 37 -176 87 -176 269 -278 472 -265 153 10 230 59 261 164 31
107 -2 258 -82 379 -51 76 -134 158 -234 230 -131 95 -180 116 -239 103z"/>
<path d="M18272 25985 c-155 -34 -227 -107 -278 -280 -24 -81 -24 -244 0 -354
10 -46 19 -119 21 -163 4 -69 8 -85 32 -116 100 -132 305 -272 396 -272 53 0
112 33 148 83 73 98 139 276 139 376 0 65 -28 243 -56 356 -78 308 -196 417
-402 370z"/>
<path d="M24677 25936 c-105 -38 -252 -156 -291 -235 -42 -84 -51 -144 -50
-336 1 -149 5 -193 22 -257 47 -174 131 -224 267 -159 80 37 212 153 252 220
38 64 48 106 64 276 18 202 -6 378 -60 442 -49 59 -125 77 -204 49z"/>
<path d="M25600 25859 c-71 -14 -164 -65 -210 -115 -80 -87 -119 -210 -120
-380 0 -162 51 -190 209 -114 184 89 339 220 389 328 75 165 -73 321 -268 281z"/>
<path d="M17363 25850 c-82 -17 -176 -87 -188 -140 -9 -42 11 -135 44 -206 39
-84 100 -147 177 -185 78 -39 143 -37 197 4 49 37 62 92 62 262 0 173 -11 202
-89 239 -58 28 -141 39 -203 26z"/>
<path d="M11775 25766 c-80 -23 -117 -42 -181 -90 -64 -48 -146 -144 -169
-199 -52 -126 -61 -432 -16 -594 28 -100 75 -183 116 -202 18 -9 58 -15 98
-14 214 1 422 242 509 590 20 78 22 111 21 292 -1 112 -6 208 -11 213 -5 5
-78 11 -163 14 -116 3 -166 1 -204 -10z"/>
<path d="M30908 25739 c-50 -15 -84 -48 -100 -100 -17 -59 -18 -480 0 -563 33
-161 152 -281 313 -316 72 -16 246 -9 277 11 62 39 93 186 95 444 1 214 -10
266 -73 338 -112 127 -378 224 -512 186z"/>
<path d="M28855 25644 c-102 -25 -232 -115 -307 -212 -39 -50 -43 -60 -43
-113 0 -49 4 -63 31 -96 109 -135 365 -208 542 -154 91 27 168 94 213 186 57
116 49 166 -44 291 -65 88 -121 114 -241 113 -50 0 -118 -7 -151 -15z"/>
<path d="M21439 25606 c-101 -36 -177 -115 -250 -260 -67 -133 -66 -158 18
-328 118 -240 173 -277 287 -199 54 37 188 180 232 246 58 87 78 210 53 327
-10 46 -21 62 -79 119 -49 49 -83 72 -124 88 -65 24 -87 25 -137 7z"/>
<path d="M13929 25567 c-135 -31 -219 -136 -219 -276 0 -162 109 -274 264
-273 66 1 208 41 322 92 80 36 183 104 249 163 l50 45 -65 68 c-165 174 -191
187 -395 191 -96 1 -170 -2 -206 -10z"/>
<path d="M23053 25301 c-107 -50 -205 -307 -190 -501 20 -262 171 -454 403
-514 86 -22 113 -20 165 12 104 67 226 255 259 398 15 67 15 171 0 209 -19 49
-78 113 -174 187 -257 199 -372 251 -463 209z"/>
<path d="M19853 25199 c-179 -30 -394 -187 -468 -340 -44 -93 -52 -165 -30
-294 64 -372 158 -425 475 -265 222 111 344 230 390 378 99 317 -80 570 -367
521z"/>
<path d="M31945 25145 c-88 -31 -200 -197 -231 -346 -19 -87 -14 -215 11 -299
41 -133 136 -281 253 -392 90 -85 129 -103 217 -102 100 0 164 25 234 90 157
145 199 450 91 665 -63 125 -322 345 -452 384 -62 18 -72 18 -123 0z"/>
<path d="M10740 25066 c-127 -34 -225 -148 -323 -377 -56 -131 -81 -238 -81
-354 -1 -129 11 -161 84 -229 97 -89 220 -123 339 -92 192 49 354 214 432 438
50 146 48 263 -8 378 -52 106 -195 212 -321 239 -63 13 -64 13 -122 -3z"/>
<path d="M22262 24804 c-85 -42 -173 -182 -207 -328 -19 -80 -19 -227 0 -301
59 -229 225 -348 376 -269 47 24 125 100 154 151 68 115 91 270 61 407 -33
148 -135 308 -221 347 -55 26 -102 24 -163 -7z"/>
<path d="M17821 24686 c-23 -27 -29 -93 -21 -200 29 -356 202 -378 394 -50 31
52 56 96 56 98 0 1 -72 37 -159 80 -172 85 -244 104 -270 72z"/>
<path d="M18743 24604 c-80 -54 -158 -127 -180 -167 -8 -16 -14 -45 -12 -65 4
-71 -1 -84 -54 -140 -147 -156 -287 -415 -287 -530 0 -90 64 -181 180 -259 55
-37 150 -84 296 -147 l111 -48 89 91 c137 143 189 231 218 374 46 222 -15 449
-220 819 -36 65 -67 118 -69 118 -2 0 -34 -21 -72 -46z"/>
<path d="M20668 24606 c-95 -26 -161 -94 -187 -193 -37 -137 -33 -316 9 -426
56 -147 210 -195 369 -116 71 36 109 80 155 181 83 179 70 337 -39 457 -74 81
-210 125 -307 97z"/>
<path d="M24071 24593 c-29 -15 -82 -54 -116 -86 -91 -82 -98 -109 -97 -353 1
-287 27 -439 102 -590 93 -190 249 -265 461 -220 144 31 265 119 322 235 43
87 45 178 6 261 -74 157 -434 643 -554 748 -44 39 -57 39 -124 5z"/>
<path d="M24700 24588 c-51 -34 -72 -81 -66 -146 14 -157 179 -267 304 -203
47 24 174 141 202 186 30 49 24 93 -18 121 -46 32 -159 56 -282 61 -98 5 -107
3 -140 -19z"/>
<path d="M14760 24553 c-128 -12 -355 -57 -795 -158 -408 -92 -614 -118 -1198
-150 -421 -23 -487 -37 -627 -132 -264 -178 -367 -410 -387 -872 -5 -119 -3
-156 10 -202 23 -78 85 -168 187 -270 66 -67 95 -90 128 -98 52 -15 114 0 137
32 22 32 19 124 -11 267 -36 175 -27 237 52 328 36 42 216 192 231 192 4 0 53
-93 108 -207 115 -238 215 -414 357 -627 106 -158 273 -383 391 -525 112 -137
352 -370 454 -441 301 -211 739 -430 974 -489 195 -48 421 -72 688 -72 198 0
304 9 396 36 63 18 181 93 168 106 -12 12 -174 48 -471 104 -431 81 -702 161
-951 281 -380 183 -581 386 -873 884 -112 191 -129 224 -310 575 -146 281
-202 384 -292 530 -22 37 -36 70 -34 85 6 46 42 54 274 58 l211 4 61 -104 c75
-127 153 -290 288 -606 120 -280 177 -395 267 -544 255 -418 577 -694 953
-816 161 -53 312 -71 794 -97 443 -24 607 -50 732 -117 164 -88 384 -335 483
-544 74 -156 103 -348 72 -471 -39 -151 -142 -394 -322 -758 -164 -331 -228
-445 -668 -1183 -834 -1398 -977 -1653 -1336 -2377 -296 -596 -357 -736 -410
-936 -38 -143 -135 -641 -152 -773 -13 -112 -8 -281 16 -451 20 -148 20 -204
-1 -212 -16 -6 -332 84 -447 127 -74 28 -167 89 -240 158 -33 31 -128 143
-212 247 -167 210 -253 295 -347 346 -54 29 -73 34 -133 34 -58 0 -78 -5 -117
-27 -60 -36 -111 -96 -154 -181 -86 -169 -86 -326 1 -502 65 -133 165 -233
339 -340 112 -69 153 -113 163 -178 10 -64 22 -67 120 -37 110 34 295 46 483
32 181 -14 433 -54 488 -78 l37 -16 -40 -19 c-49 -23 -103 -24 -126 -3 -24 22
-178 50 -368 68 -91 9 -166 14 -168 13 -1 -2 104 -36 235 -76 296 -92 434
-144 479 -184 80 -70 139 -267 89 -299 -19 -13 -175 -9 -278 7 -139 21 -332
67 -573 136 -670 193 -1062 253 -1660 253 -342 0 -443 -6 -1020 -59 -435 -40
-747 -65 -1240 -100 -1536 -108 -3233 -319 -3482 -432 -37 -16 -37 -17 -12
-20 15 -2 168 16 340 41 808 117 1727 195 3194 271 1023 52 1341 66 1705 72
419 7 468 3 744 -53 283 -58 686 -169 700 -193 3 -4 -5 -13 -18 -19 -119 -54
-973 -225 -1530 -307 -61 -9 -243 -29 -405 -46 -1274 -128 -2753 -394 -3404
-614 -130 -43 -145 -50 -135 -61 8 -7 153 20 280 52 742 187 1880 362 3008
464 512 46 795 79 1085 125 487 78 979 135 1475 170 427 31 1273 40 1200 13
-49 -18 -793 -199 -940 -228 -174 -35 -303 -42 -417 -20 -112 20 -358 7 -733
-39 -179 -23 -349 -44 -378 -47 -47 -6 -53 -9 -50 -28 7 -46 42 -51 348 -50
522 2 1064 48 1450 125 135 26 211 46 430 114 149 45 291 44 334 -4 22 -24 32
-71 41 -181 l7 -86 -268 -43 c-356 -56 -673 -89 -972 -101 -399 -16 -719 -60
-1277 -176 -1106 -230 -2463 -638 -3265 -981 -522 -223 -1511 -712 -2215
-1096 -392 -213 -720 -415 -702 -433 10 -10 227 94 1157 551 1271 625 1719
826 2230 1003 1094 377 2568 707 3725 832 210 22 469 63 540 85 26 7 70 29 98
49 51 35 57 36 257 62 269 35 576 44 670 20 95 -25 124 -61 81 -100 -42 -38
-175 -58 -476 -71 -258 -11 -462 -41 -805 -117 -124 -27 -437 -91 -695 -143
-556 -110 -730 -151 -1011 -239 -115 -35 -317 -97 -449 -136 -502 -149 -795
-250 -795 -272 0 -14 50 -4 305 59 323 80 1159 262 1780 389 404 82 914 156
1305 190 107 9 362 18 606 21 l420 6 48 -77 c79 -127 109 -192 114 -249 6 -75
-11 -88 -136 -98 -391 -33 -1364 -306 -2542 -714 -497 -172 -772 -283 -1250
-503 -620 -285 -848 -417 -1605 -926 -411 -276 -585 -403 -585 -427 0 -17 99
40 405 231 1057 661 1639 942 2750 1330 991 346 1925 602 3013 826 l133 28 71
-70 c83 -82 148 -160 148 -180 0 -19 -81 -40 -230 -60 -407 -54 -1296 -346
-2054 -674 -1200 -519 -2164 -1154 -3086 -2032 -177 -169 -485 -483 -504 -516
-25 -41 102 62 465 378 506 441 910 751 1369 1053 910 596 1940 1057 3140
1402 441 127 613 168 710 168 133 0 261 -40 333 -103 40 -34 46 -60 22 -80 -9
-7 -57 -30 -108 -50 -51 -21 -234 -107 -407 -193 -173 -85 -389 -187 -480
-227 -446 -196 -1004 -512 -1309 -740 -584 -438 -1643 -1455 -2246 -2157 -95
-111 -381 -477 -448 -573 -19 -27 47 42 278 290 303 326 992 1012 1235 1231
570 514 1087 926 1451 1157 205 130 305 185 739 407 228 117 471 245 540 284
148 85 191 99 225 77 14 -9 35 -16 47 -16 31 0 148 57 279 136 238 143 336
171 423 120 56 -33 153 -138 178 -193 14 -33 16 -47 8 -63 -11 -21 -14 -22
-120 -39 -158 -25 -537 -259 -872 -538 -98 -81 -368 -337 -414 -392 -28 -33
-28 -34 -4 -21 14 7 79 48 145 90 163 104 190 120 204 120 20 0 -2 -29 -100
-135 -110 -119 -250 -293 -375 -465 -166 -230 -287 -420 -267 -420 15 0 183
176 429 450 501 555 945 941 1255 1090 109 52 165 59 241 30 61 -23 118 -68
118 -94 0 -23 -34 -37 -113 -47 -261 -33 -823 -473 -1572 -1230 -392 -397
-465 -490 -694 -888 -275 -476 -446 -838 -390 -819 19 6 55 63 119 183 215
404 703 1068 1014 1381 255 255 950 813 1347 1081 158 106 189 123 226 123 56
0 211 -153 323 -319 48 -72 73 -128 236 -524 143 -348 271 -624 478 -1032 343
-675 575 -1070 642 -1096 38 -14 150 -11 270 7 89 13 109 13 119 2 6 -7 84
-128 173 -268 l162 -256 112 8 c62 4 198 15 302 23 104 9 190 14 191 13 1 -2
42 -59 90 -128 141 -203 221 -272 375 -324 108 -36 195 -51 496 -91 393 -51
539 -83 879 -195 336 -111 400 -124 590 -124 184 0 231 7 654 109 492 118 716
166 996 216 215 38 299 61 403 110 97 47 174 120 280 269 38 52 81 101 96 109
21 10 106 14 332 19 l303 5 101 178 c102 182 136 231 174 251 11 7 91 17 177
24 197 15 230 28 293 113 135 184 532 894 889 1591 173 338 279 564 378 808
44 107 102 240 130 295 93 184 131 223 198 205 48 -14 207 -94 371 -188 74
-43 198 -110 275 -150 176 -92 239 -135 339 -228 96 -90 122 -104 142 -77 8
10 14 27 14 36 0 28 -81 127 -192 235 -78 77 -120 110 -174 136 -40 19 -109
62 -155 95 -105 75 -185 121 -376 217 -213 106 -259 152 -196 193 92 61 328
-63 655 -343 236 -204 378 -354 596 -631 76 -98 244 -304 371 -458 572 -690
894 -1157 1178 -1710 68 -132 129 -244 135 -250 34 -31 -46 181 -174 465 -113
249 -247 506 -385 736 -66 110 -141 240 -166 289 -54 103 -162 260 -387 560
-352 470 -557 718 -806 974 -200 205 -311 299 -549 461 -90 61 -184 129 -209
151 -45 40 -46 41 -31 70 29 55 75 99 105 99 64 0 596 -382 995 -715 252 -210
434 -350 683 -528 333 -237 560 -426 917 -762 223 -209 274 -252 262 -221 -20
50 -290 380 -506 616 -274 300 -357 375 -691 626 -393 295 -1040 741 -1220
840 -41 23 -124 68 -184 100 -111 60 -201 129 -190 145 9 15 110 10 217 -12
138 -28 418 -122 607 -204 903 -390 2059 -1165 2935 -1965 299 -273 871 -868
1285 -1335 158 -179 271 -297 278 -290 19 19 -410 564 -757 960 -625 713
-1336 1389 -1946 1850 -486 367 -1103 716 -1730 978 -353 147 -555 248 -568
281 -3 8 7 32 24 53 73 96 81 110 70 132 -20 36 -13 41 54 41 171 0 804 -177
1482 -414 408 -142 640 -242 1198 -515 815 -399 1105 -575 1752 -1063 374
-282 625 -488 928 -763 224 -204 335 -298 343 -291 10 11 -101 131 -437 467
-488 488 -676 656 -1027 920 -806 605 -1918 1184 -2944 1532 -91 31 -352 117
-580 191 -566 184 -630 210 -630 259 0 34 52 117 88 139 42 26 83 25 229 -3
341 -65 1243 -299 1608 -416 61 -20 265 -92 455 -160 190 -69 487 -176 660
-238 1266 -453 2114 -853 2923 -1377 208 -135 354 -223 387 -233 l25 -7 -25
27 c-34 37 -231 195 -365 292 -557 404 -1346 841 -2140 1188 -592 258 -1572
621 -2380 882 -254 81 -470 145 -765 223 -250 67 -375 107 -395 127 -20 20
-13 58 25 133 53 104 133 155 295 186 114 23 523 26 690 6 576 -70 1439 -228
2275 -417 273 -62 502 -118 970 -238 118 -31 238 -58 265 -62 47 -5 48 -5 25
8 -41 24 -724 241 -1220 389 -724 215 -1891 444 -2825 553 -239 28 -349 48
-371 66 -8 6 -14 23 -14 37 0 31 43 107 65 116 51 19 585 -64 1151 -180 735
-150 978 -196 1550 -293 809 -138 1266 -235 1769 -377 159 -45 589 -178 629
-195 12 -5 93 -34 181 -65 199 -69 620 -236 865 -342 460 -198 823 -370 1710
-807 776 -383 960 -469 960 -451 0 8 -135 95 -300 193 -589 350 -1701 920
-2430 1246 -585 260 -1959 736 -2531 876 -346 84 -938 203 -1719 346 -531 97
-690 134 -725 169 -13 13 -21 13 -62 -1 -42 -15 -69 -15 -244 -4 -318 19 -623
59 -666 87 -76 49 57 128 267 159 392 58 1869 86 1956 37 41 -23 -28 -34 -284
-42 -573 -20 -846 -48 -899 -92 -30 -25 22 -31 236 -30 257 2 475 12 1156 54
579 36 1098 44 1350 20 534 -50 1447 -169 1975 -257 426 -71 568 -99 935 -185
245 -57 379 -83 403 -77 30 6 -143 56 -563 162 -524 132 -943 225 -1215 269
-210 34 -323 51 -1185 176 -572 83 -1183 178 -1645 255 -379 63 -621 100 -975
150 -189 26 -266 43 -266 60 0 37 522 126 1061 179 590 59 841 61 1702 11 332
-19 774 -43 983 -55 965 -52 1675 -114 2670 -235 377 -45 500 -57 565 -53 l55
3 -40 13 c-102 32 -738 149 -1096 202 -183 26 -789 93 -1129 124 -567 52
-1195 98 -2020 146 -474 28 -780 52 -838 67 l-23 5 20 22 c11 11 61 43 112 71
111 60 200 145 284 270 77 114 153 191 202 204 156 42 1287 165 2248 246 165
14 622 47 1015 75 748 52 1290 97 1300 107 8 9 -1174 -5 -1395 -16 -475 -25
-616 -33 -895 -52 -644 -42 -1034 -77 -1742 -156 -284 -32 -520 -54 -525 -50
-12 13 24 67 119 177 298 346 332 554 108 659 -106 50 -263 30 -560 -71 -345
-117 -564 -263 -679 -452 -112 -186 -142 -487 -66 -654 36 -80 76 -118 151
-142 69 -23 97 -48 92 -81 -10 -69 -111 -82 -863 -114 -670 -29 -1055 -80
-1191 -160 -45 -26 -55 -42 -48 -73 13 -49 -102 -99 -292 -127 -123 -18 -364
-34 -370 -24 -2 3 -6 67 -10 141 -7 130 -6 135 15 155 27 26 86 42 313 87 227
46 327 82 289 106 -7 4 -83 10 -169 13 -216 9 -306 18 -290 28 36 24 176 70
264 88 54 11 210 32 345 46 413 42 429 47 600 199 189 168 273 277 314 409 35
111 34 197 -2 251 -26 37 -28 46 -28 148 -1 84 -4 111 -15 118 -28 17 -146 23
-265 12 -256 -24 -336 -75 -750 -482 -388 -382 -453 -435 -599 -483 l-79 -27
7 63 c16 151 18 270 7 382 -20 197 -120 891 -147 1015 -95 447 -327 1070 -615
1655 -172 351 -284 546 -529 920 -155 237 -242 380 -395 645 -113 197 -230
387 -388 630 -313 481 -370 576 -536 889 -157 296 -270 555 -297 681 -19 90
-18 277 2 359 36 148 126 282 279 414 200 173 341 217 820 257 398 34 563 58
780 115 360 94 560 214 787 471 287 326 504 683 673 1109 122 307 190 409 317
473 66 34 254 86 348 96 99 12 128 -25 96 -122 -9 -26 -64 -130 -122 -232 -58
-102 -159 -293 -224 -425 -197 -400 -382 -680 -671 -1011 -350 -402 -727 -576
-1659 -764 -140 -28 -265 -58 -278 -66 -21 -14 -21 -17 -8 -42 25 -47 78 -90
126 -101 25 -6 115 -11 200 -11 665 0 1421 253 1978 664 137 100 343 309 453
456 119 160 265 381 404 610 154 255 276 442 332 508 76 89 127 102 205 53 56
-36 78 -66 78 -109 0 -57 -14 -83 -178 -316 -54 -77 -95 -154 -89 -170 15 -38
260 -126 352 -126 50 0 73 15 128 88 132 171 185 379 218 859 14 210 9 304
-19 359 -42 81 -215 220 -359 286 -94 44 -204 48 -464 17 -220 -25 -436 -29
-579 -10 -112 15 -382 68 -600 117 -370 84 -588 123 -820 145 -150 14 -660 14
-775 -1 -115 -14 -273 -56 -467 -124 -762 -266 -1114 -542 -1490 -1166 -311
-516 -446 -1039 -488 -1885 -41 -809 133 -1398 673 -2285 223 -365 341 -518
729 -941 512 -559 771 -912 977 -1334 256 -521 444 -1165 520 -1775 48 -380
65 -717 83 -1583 l12 -618 -143 -143 -144 -144 -456 -5 c-542 -5 -541 -5 -631
-91 -38 -36 -87 -70 -137 -94 -67 -32 -88 -37 -148 -36 -38 0 -98 6 -132 14
-84 18 -169 -3 -278 -69 -116 -71 -168 -86 -301 -86 -106 0 -112 1 -155 30
-57 38 -156 47 -226 20 -99 -38 -220 -198 -231 -305 -9 -96 49 -206 135 -257
45 -26 55 -28 153 -28 87 1 125 7 225 34 156 43 176 41 348 -45 123 -61 143
-67 212 -72 89 -6 144 11 281 87 124 69 203 94 281 89 53 -3 68 -9 93 -33 17
-16 40 -55 52 -87 11 -32 23 -58 25 -58 3 0 35 27 71 61 146 134 424 219 714
219 118 0 168 -12 168 -41 0 -10 -29 -50 -63 -88 -61 -66 -97 -123 -97 -153 0
-25 -43 -56 -100 -72 -63 -17 -193 -32 -360 -41 -158 -8 -287 -30 -367 -62
-65 -26 -76 -27 -253 -28 -131 0 -192 -4 -207 -13 -13 -7 -41 -37 -62 -66
-118 -159 -240 -191 -441 -115 -70 26 -104 33 -190 36 -175 8 -293 -31 -399
-132 -81 -76 -94 -81 -139 -56 -135 76 -214 94 -313 71 -85 -20 -149 -54 -280
-150 -140 -104 -121 -104 -249 0 -128 103 -217 132 -297 98 -96 -41 -213 -154
-213 -205 0 -83 127 -182 234 -183 58 0 184 41 320 104 54 25 100 46 102 46 1
0 6 -21 10 -47 9 -67 38 -114 92 -150 95 -64 249 -95 401 -81 96 8 149 29 223
89 54 43 67 49 109 49 27 0 120 -21 217 -49 94 -27 188 -52 211 -56 22 -4 51
-15 63 -25 21 -16 23 -27 23 -104 0 -54 4 -89 12 -97 18 -18 123 -23 153 -7
14 8 26 23 28 35 3 18 -8 28 -57 53 -34 17 -61 35 -61 41 0 42 269 67 576 52
236 -11 261 -19 251 -80 -12 -71 -50 -92 -213 -118 -117 -19 -241 -50 -389
-97 -167 -52 -268 -60 -365 -28 -100 33 -235 37 -339 10 -157 -40 -251 -105
-251 -174 0 -18 12 -61 26 -97 14 -35 30 -93 35 -129 6 -43 17 -72 31 -87 33
-35 132 -61 342 -88 361 -47 417 -66 491 -166 54 -73 57 -106 17 -170 -61 -95
-289 -287 -415 -348 -162 -80 -282 -96 -671 -88 -200 3 -327 11 -443 26 -598
78 -1205 251 -1734 495 -299 138 -497 264 -639 406 -141 141 -191 250 -211
458 -25 261 21 719 92 907 95 253 1112 1459 1549 1837 140 121 305 247 465
356 187 126 326 242 501 416 182 183 258 275 385 465 204 306 325 625 364 957
24 204 19 326 -13 339 -44 17 -105 -71 -419 -597 -124 -208 -230 -378 -235
-378 -5 0 -78 36 -161 79 -255 134 -372 161 -692 161 -319 0 -595 -34 -1100
-135 -583 -116 -778 -140 -1130 -140 -210 1 -291 5 -421 23 -201 27 -443 75
-739 146 -398 96 -635 123 -990 113 -418 -12 -694 -79 -857 -208 -77 -61 -99
-54 -190 58 -78 96 -150 218 -310 528 -147 284 -241 438 -271 443 -48 9 -64
-178 -32 -394 21 -142 84 -386 130 -505 92 -240 287 -548 508 -804 123 -143
384 -399 566 -554 79 -68 289 -239 465 -379 177 -141 384 -310 461 -376 176
-150 532 -506 694 -692 370 -427 448 -564 497 -869 21 -134 31 -560 15 -680
-79 -609 -431 -901 -1531 -1265 -518 -172 -775 -220 -1179 -220 -460 0 -777
49 -991 152 -147 71 -224 149 -303 308 -31 62 -57 124 -57 136 0 63 201 147
487 203 202 40 223 51 267 144 77 161 83 248 23 304 -60 54 -142 68 -492 82
-246 10 -340 25 -352 57 -3 7 9 30 25 49 18 19 34 51 37 72 10 59 22 82 57
103 45 27 128 35 243 22 124 -15 164 -8 224 35 98 71 122 78 271 78 125 0 146
-3 275 -39 174 -47 223 -46 343 6 45 20 117 56 159 79 80 46 183 135 183 159
0 26 -105 115 -180 153 -41 20 -106 44 -144 52 -39 8 -80 22 -92 32 -12 10
-38 31 -57 46 -85 68 -205 58 -443 -37 -78 -31 -152 -56 -165 -56 -16 0 -38
16 -66 49 -30 34 -52 50 -76 55 -18 3 -63 26 -98 51 -108 76 -142 89 -218 81
-36 -3 -138 -22 -226 -41 -237 -52 -279 -48 -403 37 -84 57 -128 71 -207 64
-39 -4 -74 -4 -78 0 -8 9 9 40 50 90 18 23 33 47 33 53 0 10 -43 11 -193 5
-226 -8 -240 -4 -351 90 -36 31 -78 59 -92 62 -19 5 -71 -8 -178 -45 -83 -28
-164 -51 -181 -51 -42 0 -159 120 -175 179 -13 51 4 87 47 97 15 4 171 -3 347
-15 707 -48 680 -42 731 -146 42 -87 114 -120 163 -75 12 12 22 25 22 30 0 41
169 60 524 60 441 0 702 22 830 70 155 58 232 224 164 355 -38 73 -92 145
-125 166 -61 41 -113 23 -272 -96 l-102 -76 -130 121 c-72 66 -147 129 -169
140 -97 49 -173 46 -313 -16 -184 -81 -256 -61 -329 89 -58 117 -72 124 -333
152 -191 21 -306 41 -462 81 -73 19 -148 34 -167 34 -18 0 -80 -13 -137 -30
-57 -16 -126 -30 -154 -30 l-50 0 -154 237 -155 236 18 541 c22 699 42 1006
91 1391 61 474 125 733 279 1121 203 513 437 954 828 1559 194 300 272 430
314 521 34 74 56 100 73 89 54 -33 369 296 583 610 207 302 461 784 600 1135
122 310 163 578 162 1055 -1 490 -60 903 -179 1260 -252 753 -986 1675 -1566
1969 -254 129 -622 222 -1014 255 -112 10 -336 12 -415 4z m13535 -706 l120
-62 -3 -140 c-7 -392 -56 -638 -169 -858 -124 -240 -323 -428 -590 -558 -123
-60 -221 -86 -370 -99 -385 -34 -843 117 -943 311 -47 91 -80 278 -79 454 0
176 26 235 103 235 57 0 119 -33 276 -144 149 -106 320 -196 420 -222 149 -37
307 -13 431 67 262 169 589 682 589 924 0 91 31 155 74 155 12 0 75 -29 141
-63z m-13412 -40 c50 -21 64 -57 77 -192 30 -320 227 -628 490 -764 127 -67
232 -93 396 -98 212 -8 224 -3 446 183 122 102 206 148 255 141 55 -9 98 -50
137 -130 46 -93 70 -228 63 -348 -7 -107 -27 -149 -101 -216 -262 -233 -926
-333 -1351 -202 -293 90 -667 401 -720 599 -49 181 -92 693 -75 893 8 103 21
122 97 143 64 18 234 13 286 -9z m12715 -43 c31 -21 29 -65 -5 -105 -39 -46
-96 -69 -173 -69 -126 0 -195 60 -137 117 58 59 261 95 315 57z m-12020 -139
c39 -33 50 -79 26 -106 -37 -41 -195 -16 -214 35 -28 76 118 130 188 71z
m10065 -3559 c314 -499 579 -1019 682 -1336 56 -173 59 -330 7 -348 -19 -6
-128 108 -180 188 -57 87 -111 199 -187 394 -109 278 -415 1171 -415 1211 0
30 25 1 93 -109z m-8250 39 c-5 -148 -80 -469 -170 -729 -71 -204 -155 -374
-307 -616 -54 -87 -193 -280 -201 -280 -2 0 -11 -3 -21 -7 -15 -6 -17 -1 -11
44 8 66 81 283 172 508 85 210 462 1062 495 1118 32 54 45 43 43 -38z m6612
-5495 c193 -22 360 -90 319 -130 -12 -12 -204 -43 -493 -80 -484 -62 -690
-106 -1161 -250 -316 -97 -599 -171 -770 -202 -163 -29 -431 -31 -562 -5 -115
23 -254 64 -413 122 -632 230 -985 306 -1735 375 -207 19 -328 34 -337 44 -2
2 7 10 20 19 109 71 554 122 862 97 247 -19 407 -53 733 -156 613 -194 667
-204 1112 -204 426 0 603 21 920 110 496 138 728 193 969 230 241 37 395 46
536 30z m5940 -1940 c306 -26 516 -56 651 -91 130 -34 334 -69 604 -104 232
-30 375 -52 444 -67 40 -8 47 -12 31 -18 -38 -14 -420 -21 -586 -11 -190 12
-228 19 -347 65 -148 58 -335 83 -784 107 -259 13 -414 9 -783 -20 -272 -21
-520 -27 -529 -12 -11 17 34 58 91 84 71 31 180 52 383 72 85 8 171 17 190 19
71 9 412 -4 635 -24z m-17002 -815 c-4 -15 -86 -12 -91 3 -3 10 8 12 44 10 27
-2 48 -7 47 -13z m3177 -659 c0 -8 -53 -64 -118 -126 -121 -113 -160 -145
-168 -138 -5 5 53 83 121 163 71 83 165 140 165 101z m765 -726 c23 -25 14
-89 -23 -161 -46 -90 -55 -93 -260 -97 -188 -4 -254 7 -260 40 -5 24 83 115
138 143 58 29 125 50 230 74 113 26 152 26 175 1z m10579 -20 c19 -19 19 -20
1 -40 -26 -28 -92 -24 -112 7 -13 19 -12 24 7 43 26 26 73 21 104 -10z m-3911
-1884 c19 -7 48 -33 67 -56 31 -39 34 -41 41 -22 23 62 197 54 832 -38 350
-51 663 -86 969 -108 136 -10 249 -20 252 -23 9 -9 -34 -368 -53 -440 -57
-211 -169 -459 -292 -644 -88 -130 -223 -272 -294 -308 -27 -13 -86 -32 -130
-41 -180 -36 -327 -136 -562 -383 -180 -189 -296 -293 -328 -293 -31 0 -102
49 -170 119 -125 128 -181 100 -254 -126 -21 -65 -57 -158 -80 -206 -40 -87
-140 -257 -152 -257 -3 0 -11 30 -18 66 -17 95 -39 143 -67 150 -35 9 -111
-30 -305 -157 -279 -182 -471 -273 -682 -324 -126 -31 -291 -55 -376 -55 -71
0 -70 -3 -36 89 13 37 14 53 5 91 -16 68 -46 112 -72 108 -14 -2 -70 -57 -145
-143 -68 -77 -138 -154 -156 -172 l-32 -31 -239 19 c-374 29 -409 38 -564 143
-59 40 -174 110 -257 156 -215 118 -309 193 -342 273 -9 21 -19 35 -23 30 -5
-4 -13 -55 -19 -112 -16 -152 -35 -164 -173 -115 -162 58 -262 129 -338 238
-55 81 -128 232 -141 294 -23 110 -25 110 -367 -17 -63 -23 -100 -31 -150 -31
-128 1 -195 50 -455 335 -270 297 -268 295 -425 295 -148 0 -160 8 -318 210
-247 315 -404 727 -408 1072 -2 156 10 160 569 218 160 17 454 50 655 75 446
55 612 71 892 86 238 12 503 9 530 -7 16 -9 12 -21 -42 -126 -33 -64 -60 -129
-60 -143 0 -55 45 -40 150 49 80 69 127 87 165 62 32 -21 42 -46 51 -128 3
-34 12 -73 20 -84 34 -55 124 -29 195 57 70 84 106 119 122 119 18 0 37 -50
37 -96 0 -38 16 -85 33 -96 22 -14 77 -8 115 11 20 11 73 45 117 76 61 43 87
55 110 53 34 -3 42 -24 44 -104 2 -110 53 -114 123 -7 48 72 80 95 102 73 7
-8 10 -54 8 -143 -3 -167 -1 -177 40 -177 27 0 42 11 88 60 45 49 62 60 87 60
49 0 81 19 108 66 28 48 72 86 127 108 31 13 37 13 57 -1 13 -8 41 -53 63 -99
62 -130 118 -176 172 -141 35 24 56 78 63 167 7 100 19 116 68 96 18 -8 64
-35 101 -61 39 -26 76 -45 88 -43 23 3 24 13 11 103 -6 41 -4 53 9 64 25 21
76 -7 112 -59 60 -86 90 -124 114 -142 56 -41 84 12 74 139 -7 87 -1 133 18
133 7 0 38 -25 69 -56 l57 -56 14 23 c7 13 18 33 24 44 20 37 47 28 144 -46
52 -39 105 -75 118 -80 63 -24 99 3 87 64 -4 18 -25 72 -48 120 -48 104 -45
113 49 123 55 6 62 4 91 -20 17 -14 58 -70 91 -124 94 -153 205 -262 266 -262
9 0 25 9 36 20 23 23 27 96 9 178 -15 73 -37 92 -104 90 -59 -2 -92 15 -126
63 -33 46 -33 67 0 99 34 34 87 40 144 16z"/>
<path d="M19463 8439 c-62 -18 -135 -140 -158 -262 -9 -48 16 -63 73 -44 80
28 148 100 212 225 25 51 29 66 20 77 -14 17 -95 19 -147 4z"/>
<path d="M21413 24179 c-45 -29 -126 -139 -174 -235 -114 -234 -81 -472 76
-550 74 -36 139 -30 244 22 95 47 218 165 255 245 33 69 36 182 7 244 -55 121
-261 295 -348 295 -15 0 -43 -10 -60 -21z"/>
<path d="M19743 23671 c-154 -56 -257 -197 -284 -386 -18 -133 20 -265 100
-342 114 -112 294 -147 423 -82 59 29 135 104 164 162 34 66 64 187 64 257 0
179 -73 315 -202 380 -52 26 -72 30 -137 30 -48 -1 -95 -8 -128 -19z"/>
<path d="M23003 23680 c-88 -18 -167 -74 -211 -149 -25 -42 -27 -54 -26 -146
0 -84 5 -112 28 -175 43 -116 86 -189 149 -257 80 -85 148 -118 242 -118 105
1 189 49 272 158 57 74 72 114 73 194 1 213 -124 400 -318 473 -60 23 -153 32
-209 20z"/>
<path d="M31565 23606 c-40 -17 -93 -78 -121 -141 -38 -84 -48 -165 -48 -385
0 -265 6 -291 105 -395 85 -89 110 -100 228 -92 143 8 229 54 275 144 29 58
41 182 28 296 -24 217 -112 379 -272 502 -95 73 -147 92 -195 71z"/>
<path d="M11060 23470 c-91 -43 -134 -106 -156 -229 -18 -100 -17 -195 1 -308
26 -161 80 -274 147 -309 26 -14 37 -14 75 -3 131 36 294 200 362 364 37 88
36 198 -2 277 -64 132 -184 218 -311 225 -57 3 -80 0 -116 -17z"/>
<path d="M32573 23319 c-48 -14 -110 -91 -133 -167 -55 -177 17 -626 128 -798
68 -105 142 -144 272 -144 106 0 154 26 192 101 68 134 63 416 -11 619 -41
112 -93 194 -173 272 -99 97 -200 140 -275 117z"/>
<path d="M10252 23292 c-132 -68 -227 -174 -312 -347 -121 -246 -154 -545 -73
-658 41 -57 131 -109 198 -115 45 -4 65 0 111 23 194 95 327 395 327 735 -1
153 -17 223 -73 310 -57 88 -90 98 -178 52z"/>
<path d="M12330 23128 c-63 -104 -45 -284 36 -347 43 -34 76 -27 124 25 38 41
41 49 35 82 -8 49 -87 210 -119 245 -33 35 -52 34 -76 -5z"/>
<path d="M20614 23030 c-73 -15 -162 -68 -233 -138 -94 -92 -101 -117 -108
-379 l-6 -203 104 0 c329 1 447 78 549 359 50 136 37 205 -53 289 -73 66 -161
91 -253 72z"/>
<path d="M22240 23012 c-50 -24 -109 -87 -132 -139 -78 -177 23 -448 204 -548
48 -27 62 -30 143 -30 108 0 164 23 223 90 44 50 62 100 62 174 0 155 -140
358 -304 441 -69 35 -141 40 -196 12z"/>
<path d="M21447 22985 c-101 -35 -144 -141 -98 -240 24 -51 56 -81 110 -100
130 -45 201 4 201 140 0 106 -46 185 -119 205 -45 12 -47 12 -94 -5z"/>
<path d="M23768 22641 c-73 -24 -116 -51 -166 -105 -135 -146 -147 -369 -31
-560 48 -80 166 -198 230 -230 134 -67 254 3 309 181 57 187 46 441 -26 584
-13 26 -44 65 -70 88 -72 63 -141 75 -246 42z"/>
<path d="M19026 22605 c-92 -35 -101 -68 -100 -370 1 -392 32 -483 161 -478
126 5 299 160 353 318 30 86 37 222 16 317 -36 162 -112 221 -291 225 -70 2
-112 -2 -139 -12z"/>
<path d="M30284 22450 c-70 -16 -152 -89 -229 -205 -63 -95 -88 -162 -93 -245
-6 -114 19 -155 187 -302 74 -65 142 -120 152 -123 13 -4 26 2 41 20 13 14 52
40 87 58 79 39 142 116 191 233 31 72 34 88 35 179 0 125 -19 169 -120 271
-93 94 -175 131 -251 114z"/>
<path d="M12395 22356 c-127 -126 -170 -352 -106 -546 50 -149 199 -300 297
-300 38 0 149 115 207 215 109 185 142 322 98 406 -69 132 -252 265 -382 276
l-58 6 -56 -57z"/>
<path d="M11650 22268 c-60 -29 -176 -148 -223 -228 -58 -100 -89 -208 -91
-315 -1 -85 1 -95 34 -160 51 -102 170 -219 275 -271 75 -37 84 -39 175 -39
118 0 153 17 189 89 22 43 24 61 23 165 -2 354 -121 696 -266 765 -45 21 -62
20 -116 -6z"/>
<path d="M31195 22249 c-58 -53 -91 -124 -116 -242 -18 -90 -49 -431 -49 -543
l0 -51 118 -114 c153 -149 200 -172 269 -130 75 46 182 230 223 386 30 111 38
283 17 355 -19 64 -44 101 -130 189 -99 102 -226 191 -272 191 -8 0 -36 -18
-60 -41z"/>
<path d="M21380 22219 c-124 -18 -285 -121 -331 -211 -44 -86 -63 -314 -38
-454 23 -134 47 -184 123 -259 81 -80 163 -128 260 -150 77 -18 123 -13 181
20 143 82 313 324 346 493 17 91 7 270 -21 352 -27 79 -65 138 -105 161 -75
44 -282 68 -415 48z"/>
<path d="M29762 21738 c-22 -22 -12 -54 37 -124 63 -88 127 -152 141 -138 28
28 -110 274 -154 274 -7 0 -17 -5 -24 -12z"/>
<path d="M10704 21630 c-118 -59 -232 -176 -289 -296 -60 -127 -69 -187 -69
-454 0 -256 9 -341 55 -530 64 -257 184 -434 321 -470 103 -28 219 55 296 211
206 419 174 1241 -59 1494 -76 82 -153 96 -255 45z"/>
<path d="M32265 21606 c-41 -17 -151 -139 -226 -248 -178 -260 -247 -548 -250
-1042 -1 -199 0 -201 281 -456 192 -174 157 -176 276 13 180 283 215 396 250
795 20 231 15 597 -9 679 -37 128 -109 214 -213 252 -64 24 -69 25 -109 7z"/>
<path d="M19588 21513 c-2 -10 -1 -34 2 -53 l6 -35 13 27 c14 27 8 78 -8 78
-5 0 -10 -8 -13 -17z"/>
<path d="M13225 21471 c-27 -16 -92 -72 -143 -123 l-93 -94 87 -120 c87 -120
176 -229 204 -251 31 -24 92 35 195 187 29 45 62 101 71 126 16 43 16 46 -2
80 -46 87 -202 224 -254 224 -8 0 -37 -13 -65 -29z"/>
<path d="M23177 21479 c-9 -34 -8 -122 2 -137 18 -29 29 99 12 142 -7 18 -8
18 -14 -5z"/>
<path d="M33393 21482 c-135 -48 -231 -166 -299 -366 -77 -224 -78 -528 -3
-757 108 -330 365 -517 572 -416 201 99 291 324 290 727 -1 248 -40 460 -114
619 -69 148 -148 203 -304 208 -69 3 -102 -1 -142 -15z"/>
<path d="M9260 21481 c-48 -15 -87 -40 -112 -73 -119 -156 -187 -512 -159
-837 34 -396 137 -624 319 -709 48 -23 71 -27 147 -27 78 0 97 4 146 28 140
68 224 228 270 512 9 51 13 173 13 335 0 223 -3 267 -21 354 -51 234 -160 360
-354 411 -57 16 -206 19 -249 6z"/>
<path d="M29325 21439 c-49 -14 -136 -71 -167 -110 -18 -23 -32 -54 -37 -88
-18 -117 -66 -142 -286 -152 -169 -8 -237 -22 -296 -62 -82 -55 -102 -142 -51
-213 40 -54 99 -104 124 -104 27 0 81 31 247 144 161 109 167 110 316 45 90
-39 108 -43 181 -44 73 0 87 3 155 37 93 46 232 158 276 222 69 101 31 168
-148 265 -116 63 -231 85 -314 60z"/>
<path d="M13710 21147 c-75 -17 -94 -30 -131 -84 -43 -62 -70 -136 -71 -194
-2 -55 10 -72 64 -100 70 -36 157 -50 339 -56 246 -8 358 15 437 90 73 69 21
127 -225 251 -177 88 -306 117 -413 93z"/>
<path d="M11885 20971 c-61 -35 -105 -82 -175 -186 -103 -153 -119 -219 -76
-310 39 -83 83 -135 133 -157 45 -20 49 -20 98 -4 104 32 244 192 285 323 57
185 -15 337 -170 358 -38 5 -53 1 -95 -24z"/>
<path d="M30635 20894 c-45 -23 -72 -52 -96 -101 -52 -108 6 -306 126 -426
133 -133 264 -135 400 -6 131 124 127 238 -15 380 -70 71 -127 105 -244 144
-86 29 -129 31 -171 9z"/>
<path d="M12712 20533 c-137 -138 -185 -207 -185 -273 0 -132 229 -407 355
-426 26 -4 46 3 96 33 76 45 192 157 216 208 l18 37 -41 84 c-22 47 -68 127
-102 177 -78 115 -209 287 -220 287 -5 0 -66 -57 -137 -127z"/>
<path d="M13825 20473 c-57 -38 -157 -123 -259 -221 l-89 -86 134 -130 c81
-79 155 -142 188 -160 103 -55 197 -34 285 65 56 61 80 122 80 199 0 81 -25
141 -90 210 -42 45 -184 150 -203 150 -3 0 -24 -12 -46 -27z"/>
<path d="M28903 20489 c-150 -25 -252 -128 -283 -287 -22 -112 21 -216 105
-247 38 -15 67 -17 183 -12 267 10 321 41 377 219 33 106 33 180 0 228 -59 85
-218 126 -382 99z"/>
<path d="M29762 20482 c-70 -25 -120 -67 -160 -133 -47 -77 -57 -120 -57 -239
0 -95 3 -111 28 -162 51 -104 164 -177 287 -186 143 -10 221 48 311 233 62
128 85 228 68 299 -16 68 -91 144 -174 176 -84 32 -229 38 -303 12z"/>
<path d="M14691 20450 c-140 -74 -195 -149 -195 -266 0 -60 4 -81 32 -137 41
-83 80 -117 133 -117 80 0 137 52 322 291 l66 85 -100 85 c-55 46 -107 87
-117 91 -35 14 -69 6 -141 -32z"/>
<path d="M27925 20321 c-73 -19 -135 -77 -135 -125 0 -57 52 -101 181 -154
103 -43 146 -48 185 -23 41 25 114 137 114 174 0 75 -91 128 -230 133 -47 2
-98 0 -115 -5z"/>
<path d="M15216 20277 c-17 -12 -20 -32 -26 -151 -8 -171 -15 -183 -116 -207
-89 -21 -113 -31 -151 -63 -44 -37 -60 -89 -39 -121 48 -73 283 23 442 180 95
94 129 155 122 219 -7 59 -31 91 -92 121 -68 33 -115 41 -140 22z"/>
<path d="M27400 20237 c-18 -10 -24 -20 -22 -38 4 -33 60 -116 124 -181 59
-61 206 -174 214 -165 7 7 -122 262 -159 315 -33 46 -83 82 -113 82 -11 0 -30
-6 -44 -13z"/>
<path d="M13315 20167 c-20 -38 -18 -65 8 -81 35 -21 62 48 37 95 -15 27 -24
24 -45 -14z"/>
<path d="M27823 19785 c35 -33 65 -43 70 -21 3 13 -44 44 -78 51 l-30 7 38
-37z"/>
<path d="M15857 19738 c-10 -8 -23 -24 -30 -37 -8 -16 -29 -30 -62 -40 -40
-13 -54 -23 -70 -53 -27 -50 -58 -63 -118 -47 -62 15 -86 -1 -126 -85 -40 -83
-40 -115 2 -141 21 -13 35 -33 42 -59 16 -57 38 -69 115 -63 110 7 176 54 267
190 96 144 128 270 81 314 -30 27 -78 37 -101 21z"/>
<path d="M27063 19644 c-44 -22 -85 -106 -85 -172 0 -102 95 -222 177 -222 17
0 46 19 90 60 36 33 74 60 85 60 32 0 88 -32 179 -105 47 -36 102 -75 123 -86
l39 -20 34 34 c34 34 65 115 65 171 0 66 -180 186 -389 258 -109 38 -266 49
-318 22z"/>
<path d="M13749 19508 c-112 -81 -289 -294 -289 -348 0 -14 13 -46 28 -71 58
-89 232 -239 299 -255 47 -12 114 25 198 110 143 144 165 229 91 341 -71 108
-228 255 -271 255 -7 0 -32 -14 -56 -32z"/>
<path d="M28314 19460 c-32 -16 -94 -60 -137 -96 l-78 -67 88 -89 c48 -49 100
-96 115 -104 68 -36 132 -7 263 117 94 89 100 100 81 137 -17 34 -83 95 -125
116 -51 27 -138 21 -207 -14z"/>
<path d="M29147 19449 c-94 -23 -194 -105 -238 -196 -56 -117 -29 -225 85
-339 210 -210 456 -136 517 156 20 96 -14 186 -107 290 -67 74 -172 110 -257
89z"/>
<path d="M14555 19404 c-98 -56 -130 -85 -151 -140 -21 -55 -7 -102 48 -155
55 -53 85 -56 204 -24 174 47 305 134 334 219 18 55 2 69 -74 64 -51 -4 -63
-9 -87 -36 -28 -31 -39 -27 -39 17 0 43 -78 101 -134 101 -11 0 -57 -21 -101
-46z"/>
<path d="M12225 19356 c-104 -17 -158 -40 -194 -82 -79 -89 -62 -242 43 -389
87 -121 271 -242 385 -252 99 -9 153 31 220 166 86 169 75 350 -29 479 -55 69
-98 86 -230 89 -63 1 -151 -4 -195 -11z"/>
<path d="M30190 19354 c-43 -18 -70 -59 -87 -133 -25 -108 -25 -447 0 -541 20
-74 37 -96 92 -121 218 -100 546 208 549 516 1 92 -19 127 -99 171 -99 55
-268 107 -360 110 -44 2 -87 1 -95 -2z"/>
<path d="M10128 19306 c-172 -37 -238 -163 -238 -453 0 -338 70 -667 195 -918
82 -165 153 -225 268 -225 85 0 152 34 238 121 157 158 227 424 185 707 -72
489 -359 829 -648 768z"/>
<path d="M32686 19304 c-246 -59 -400 -297 -495 -760 -100 -489 -44 -704 219
-832 142 -69 262 -45 390 78 123 119 167 275 240 855 38 301 42 424 16 475
-32 60 -86 124 -128 152 -73 50 -136 58 -242 32z"/>
<path d="M31383 19234 c-52 -26 -88 -95 -205 -384 -39 -96 -104 -249 -145
-340 -41 -91 -95 -214 -120 -273 l-45 -109 23 -24 c48 -51 259 -111 359 -102
201 20 425 340 505 723 23 109 32 295 15 334 -46 111 -294 223 -387 175z"/>
<path d="M11376 19219 c-78 -10 -101 -26 -116 -78 -16 -59 -24 -443 -11 -596
18 -220 52 -315 144 -402 129 -122 273 -159 410 -106 184 71 194 201 41 542
-116 257 -164 382 -178 462 -7 43 -22 92 -32 110 -36 62 -126 85 -258 68z"/>
<path d="M15685 18906 c-75 -24 -126 -57 -204 -132 -103 -98 -145 -174 -139
-250 6 -66 39 -118 116 -181 70 -57 100 -57 178 0 158 117 275 321 262 459
-10 97 -98 140 -213 104z"/>
<path d="M8933 18895 c-138 -39 -305 -153 -378 -259 -37 -54 -40 -65 -43 -135
-12 -250 148 -750 319 -1003 50 -72 165 -187 197 -195 29 -7 88 33 154 107
147 163 172 297 166 890 -4 423 -3 417 -97 501 -105 94 -210 125 -318 94z"/>
<path d="M33816 18896 c-79 -30 -159 -136 -207 -273 -38 -109 -61 -277 -66
-484 -9 -302 18 -465 103 -639 38 -75 62 -109 121 -167 49 -48 81 -73 97 -73
30 0 89 44 150 111 246 273 408 756 394 1177 -3 104 -8 136 -27 177 -56 125
-157 171 -401 181 -95 3 -134 1 -164 -10z"/>
<path d="M13072 18838 c-88 -70 -224 -254 -261 -353 -56 -150 5 -230 179 -230
73 0 93 4 140 27 118 58 240 188 240 254 0 19 -10 54 -21 77 -57 111 -180 257
-217 257 -11 0 -38 -15 -60 -32z"/>
<path d="M14666 18855 c-55 -19 -103 -61 -163 -141 -107 -140 -111 -245 -14
-347 45 -49 80 -67 126 -67 71 0 126 49 225 200 150 229 171 326 80 357 -48
16 -206 15 -254 -2z"/>
<path d="M27287 18855 c-28 -10 -65 -33 -91 -58 -102 -97 -81 -219 69 -400
134 -162 223 -168 319 -22 81 122 115 252 87 337 -16 47 -74 106 -130 131 -60
27 -188 33 -254 12z"/>
<path d="M28043 18840 c-78 -31 -48 -143 86 -318 84 -110 94 -137 61 -162 -21
-16 -22 -20 -11 -53 15 -45 92 -152 121 -167 12 -7 32 -9 44 -6 37 9 159 146
194 216 78 156 23 243 -253 402 -150 86 -201 104 -242 88z"/>
<path d="M29872 18745 c-178 -69 -301 -157 -321 -231 -9 -32 -7 -45 10 -80 32
-68 161 -144 242 -144 79 0 158 73 192 178 25 74 18 230 -12 269 -26 36 -36
37 -111 8z"/>
<path d="M17610 18287 c-12 -26 -28 -81 -37 -122 -16 -72 -16 -80 7 -220 13
-80 26 -142 30 -138 12 13 43 302 44 405 1 121 -13 145 -44 75z"/>
<path d="M25184 18282 c-21 -14 -22 -41 -4 -133 39 -204 101 -389 129 -389 17
0 13 39 -23 257 -37 226 -63 292 -102 265z"/>
<path d="M15285 18124 c-52 -25 -92 -36 -156 -43 -184 -21 -306 -104 -375
-256 -22 -47 -26 -67 -22 -121 5 -78 18 -98 125 -184 94 -76 199 -140 229
-140 17 0 33 31 107 208 124 299 217 537 217 556 0 26 -47 18 -125 -20z"/>
<path d="M27739 18130 c-123 -21 -190 -82 -197 -179 -9 -127 83 -357 160 -400
24 -14 30 -14 61 1 73 35 138 241 141 446 1 98 0 105 -23 123 -25 20 -62 22
-142 9z"/>
<path d="M29024 17996 c-71 -22 -167 -80 -219 -131 -63 -62 -101 -138 -122
-243 -23 -118 -16 -143 67 -224 130 -125 195 -148 427 -148 l153 0 0 138 c0
233 -32 414 -93 526 -49 90 -111 114 -213 82z"/>
<path d="M13903 17990 c-60 -13 -101 -36 -117 -69 -24 -46 -36 -146 -36 -311
0 -242 30 -391 93 -458 31 -34 91 -62 129 -62 116 1 278 176 332 359 56 192
-46 492 -182 531 -52 15 -169 21 -219 10z"/>
<path d="M12846 17965 c-183 -97 -297 -218 -351 -371 -27 -75 -33 -180 -15
-246 18 -63 70 -131 122 -156 43 -21 61 -24 187 -24 177 0 213 11 313 96 84
72 158 165 197 246 22 46 26 69 26 140 0 74 -3 91 -27 131 -35 59 -83 101
-161 140 -144 73 -216 84 -291 44z"/>
<path d="M29802 17983 c-43 -8 -46 -38 -47 -383 0 -305 1 -327 20 -365 26 -53
67 -63 250 -64 147 -1 267 17 293 43 40 40 66 307 42 445 -11 68 -16 78 -59
120 -106 105 -395 223 -499 204z"/>
<path d="M16553 17743 c-47 -19 47 -187 128 -229 53 -27 145 -8 168 34 16 30
13 84 -5 110 -39 56 -228 111 -291 85z"/>
<path d="M26242 17663 c-29 -72 -21 -144 19 -184 39 -39 129 -16 129 35 0 45
-93 176 -125 176 -7 0 -17 -12 -23 -27z"/>
<path d="M28095 17630 c-8 -16 -15 -46 -15 -67 0 -45 38 -129 70 -158 35 -31
50 -70 50 -127 0 -59 -21 -109 -72 -176 -30 -40 -33 -50 -33 -115 0 -60 5 -83
32 -140 39 -82 134 -182 208 -217 94 -46 237 -37 272 16 29 45 1 311 -42 394
-8 16 -53 70 -100 120 -103 111 -123 146 -136 252 -20 159 -86 248 -183 248
-29 0 -38 -5 -51 -30z"/>
<path d="M17645 17378 c-29 -71 -28 -346 2 -355 20 -7 82 98 94 158 9 46 8 67
-5 120 -28 109 -64 140 -91 77z"/>
<path d="M25244 17354 c-10 -14 -21 -46 -24 -71 -12 -78 18 -323 40 -323 13 0
31 123 37 249 7 154 -13 207 -53 145z"/>
<path d="M14699 17206 c-144 -51 -285 -243 -320 -434 -20 -104 30 -236 125
-336 63 -65 89 -70 164 -32 115 58 279 298 313 458 26 121 -53 293 -156 339
-47 22 -77 23 -126 5z"/>
<path d="M11280 17005 c-136 -42 -217 -204 -191 -379 29 -196 102 -316 388
-640 324 -366 515 -526 625 -526 63 0 107 26 193 113 101 103 137 170 138 260
1 76 -20 140 -89 278 -236 474 -558 817 -839 895 -63 17 -166 17 -225 -1z"/>
<path d="M31351 16985 c-184 -40 -370 -194 -533 -440 -154 -232 -238 -472
-238 -681 0 -161 27 -230 128 -326 71 -68 94 -72 195 -34 122 46 236 113 341
200 198 166 569 728 616 934 23 98 -2 184 -72 254 -92 92 -267 129 -437 93z"/>
<path d="M13586 16841 c-22 -24 -39 -86 -31 -112 6 -17 9 -18 22 -7 33 27 56
119 34 132 -4 3 -16 -3 -25 -13z"/>
<path d="M29298 16830 c-42 -23 -78 -66 -107 -130 -64 -141 31 -397 174 -473
54 -28 136 -28 190 0 48 25 111 91 149 155 65 111 39 207 -92 338 -123 123
-222 158 -314 110z"/>
<path d="M13060 16753 c-57 -28 -152 -131 -188 -205 -53 -108 -74 -206 -76
-343 0 -66 3 -137 7 -158 7 -33 10 -37 23 -26 9 7 40 54 70 106 59 100 71 113
85 92 29 -46 -2 -164 -96 -359 -106 -220 -113 -273 -52 -399 83 -172 259 -252
419 -191 104 39 187 147 196 256 10 116 -53 230 -218 399 -132 136 -140 147
-140 208 0 58 10 78 115 232 127 185 191 324 161 353 -19 20 -153 52 -216 52
-31 0 -70 -8 -90 -17z"/>
<path d="M9855 16722 c-45 -21 -85 -64 -117 -126 -36 -67 -30 -168 16 -286 46
-117 131 -279 199 -379 65 -96 235 -265 310 -310 122 -72 262 -111 398 -111
74 0 129 17 166 52 67 63 104 323 68 477 -28 119 -76 193 -215 331 -170 171
-325 274 -505 338 -98 34 -262 41 -320 14z"/>
<path d="M32880 16730 c-325 -38 -645 -304 -756 -628 -67 -195 -72 -390 -12
-478 31 -46 112 -100 167 -114 59 -14 129 1 253 55 106 46 187 105 290 214
237 249 397 604 373 828 -10 91 -30 112 -120 123 -79 11 -104 10 -195 0z"/>
<path d="M13921 16439 c-154 -46 -258 -243 -249 -469 3 -80 8 -105 32 -154 50
-101 147 -151 296 -150 97 0 162 23 219 77 49 47 61 83 61 187 0 319 -173 565
-359 509z"/>
<path d="M28651 16386 c-42 -90 -93 -279 -98 -361 -8 -131 42 -292 112 -362
40 -40 46 -43 97 -43 97 0 239 93 283 185 20 44 21 135 2 191 -50 140 -185
328 -291 406 -57 41 -79 37 -105 -16z"/>
<path d="M29972 16392 c-44 -44 -55 -120 -49 -332 10 -334 36 -543 69 -564 45
-28 140 69 221 223 92 175 134 358 107 470 -15 63 -74 120 -181 174 -96 49
-140 56 -167 29z"/>
<path d="M29400 15718 c-35 -18 -51 -35 -73 -78 -41 -83 -61 -203 -54 -335 7
-138 32 -215 88 -273 55 -58 76 -61 155 -22 197 97 332 347 283 524 -24 86
-180 193 -295 203 -48 4 -67 0 -104 -19z"/>
<path d="M13860 15281 c-54 -17 -89 -42 -112 -78 -22 -36 -23 -48 -23 -198 0
-232 29 -341 106 -398 37 -27 113 -26 169 3 148 75 233 255 201 426 -6 37 -20
83 -31 104 -23 46 -88 105 -137 125 -45 19 -138 28 -173 16z"/>
<path d="M28819 15011 c-24 -25 -29 -38 -29 -79 0 -58 28 -102 65 -102 68 0
71 -27 10 -105 -71 -92 -81 -151 -33 -202 46 -49 149 -13 241 86 59 62 87 121
87 181 0 122 -133 250 -260 250 -44 0 -56 -5 -81 -29z"/>
<path d="M15575 14917 c-40 -19 -84 -50 -103 -71 -106 -121 -149 -362 -78
-439 44 -48 199 -41 305 12 91 47 151 157 158 290 4 76 2 91 -19 131 -13 25
-42 59 -66 77 -58 44 -105 44 -197 0z"/>
<path d="M27424 14854 c-64 -68 -87 -137 -88 -259 -1 -89 2 -107 26 -157 31
-67 73 -98 133 -98 90 1 163 61 191 157 34 118 -2 239 -103 343 -76 77 -99 79
-159 14z"/>
<path d="M10480 14765 c-64 -7 -129 -19 -145 -28 -73 -38 -115 -112 -115 -204
0 -49 7 -73 47 -153 26 -52 96 -167 155 -255 l107 -160 -127 -3 c-147 -3 -303
13 -662 68 -724 112 -1391 168 -2400 200 -364 12 -1303 12 -1275 1 17 -7 72
-13 360 -36 33 -3 281 -16 550 -30 959 -49 1447 -92 2485 -221 806 -100 1069
-139 1193 -180 34 -11 78 -42 151 -108 168 -150 366 -275 492 -312 105 -30
184 9 366 181 61 58 124 113 139 122 37 22 38 56 5 186 -46 182 -143 335 -318
503 -151 144 -313 255 -533 365 -158 78 -242 90 -475 64z"/>
<path d="M15351 13728 c-52 -35 -70 -66 -87 -148 -18 -86 -14 -316 6 -385 17
-57 69 -101 146 -125 148 -45 316 -10 416 88 51 49 71 105 66 185 -5 90 -45
165 -133 253 -97 97 -198 148 -304 152 -66 3 -80 1 -110 -20z"/>
<path d="M27304 13611 c-52 -13 -100 -48 -168 -122 -182 -200 -162 -359 67
-520 62 -43 76 -49 121 -49 139 0 271 138 320 335 18 69 36 217 36 291 0 51
-1 52 -32 57 -60 11 -313 16 -344 8z"/>
<path d="M16218 13429 c-80 -42 -142 -180 -119 -265 25 -94 90 -145 192 -152
49 -4 68 0 122 26 35 16 85 50 111 74 37 36 46 51 46 80 0 44 -41 107 -115
177 -87 82 -160 101 -237 60z"/>
<path d="M26589 13391 c-87 -23 -122 -46 -150 -94 -48 -86 -19 -209 64 -270
91 -69 131 -72 191 -17 109 101 121 293 24 375 -35 29 -42 30 -129 6z"/>
<path d="M16972 13350 c-99 -35 -221 -144 -242 -217 -16 -54 5 -103 61 -140
40 -26 49 -28 143 -28 85 0 108 4 148 24 102 50 198 163 198 231 0 56 -29 84
-120 119 -92 36 -116 37 -188 11z"/>
<path d="M25198 13301 c-19 -16 -47 -53 -62 -81 -50 -91 -21 -177 65 -200 42
-12 76 -6 129 20 79 40 99 101 56 174 -29 49 -89 101 -128 111 -20 5 -33 0
-60 -24z"/>
<path d="M25741 13315 c-86 -27 -132 -101 -110 -180 14 -49 98 -133 170 -169
92 -45 179 -28 250 51 46 51 63 100 57 170 -6 71 -39 106 -123 128 -72 18
-184 19 -244 0z"/>
<path d="M17635 13240 c-80 -13 -109 -35 -113 -88 -4 -55 35 -99 125 -139 98
-44 132 -48 174 -20 48 32 109 125 116 175 5 41 5 42 -32 58 -46 19 -189 26
-270 14z"/>
<path d="M18402 12118 c-40 -59 -158 -283 -177 -337 -21 -60 -10 -71 70 -71
82 0 185 50 267 130 68 65 71 82 29 156 -35 60 -127 164 -147 164 -7 0 -26
-19 -42 -42z"/>
<path d="M24540 12093 c-51 -70 -105 -170 -120 -224 -11 -39 0 -68 46 -119 94
-104 199 -105 295 -3 51 53 72 98 65 138 -8 39 -84 159 -145 228 -60 67 -79
64 -141 -20z"/>
<path d="M19187 11969 c-58 -30 -112 -91 -131 -144 -20 -60 -21 -128 -2 -145
24 -19 59 -8 66 20 7 29 42 50 87 50 65 0 124 87 107 157 -20 83 -55 100 -127
62z"/>
<path d="M23884 11981 c-27 -12 -72 -66 -80 -97 -13 -52 74 -177 149 -213 135
-65 203 39 125 190 -51 97 -131 147 -194 120z"/>
<path d="M35734 11725 c21 -16 44 -19 70 -9 32 12 14 24 -36 24 -49 -1 -51 -2
-34 -15z"/>
<path d="M18902 10896 c-72 -24 -112 -74 -112 -139 0 -95 143 -134 325 -87
109 28 182 63 197 95 19 41 -11 91 -70 118 -61 27 -271 35 -340 13z"/>
<path d="M23171 10889 c-11 -12 -27 -50 -37 -86 -17 -64 -17 -66 2 -80 46 -35
216 6 244 58 21 39 8 60 -60 95 -76 39 -121 43 -149 13z"/>
<path d="M19732 10854 c-45 -32 -20 -157 35 -170 34 -9 53 4 80 52 28 48 29
95 5 117 -24 21 -90 22 -120 1z"/>
<path d="M19524 10230 c-27 -22 -73 -53 -103 -68 -76 -39 -81 -50 -45 -108 37
-61 71 -85 125 -91 35 -4 51 0 78 19 57 38 75 71 79 143 9 145 -40 183 -134
105z"/>
<path d="M23763 10236 c-46 -21 -56 -48 -51 -130 8 -120 40 -158 147 -178 163
-31 295 55 251 162 -42 101 -252 189 -347 146z"/>
<path d="M23222 10228 c-7 -7 -12 -24 -12 -39 0 -47 51 -80 90 -59 35 19 24
72 -21 95 -34 18 -42 18 -57 3z"/>
<path d="M18782 10120 c-284 -97 -321 -142 -211 -251 78 -79 195 -99 254 -45
13 11 40 59 59 106 19 47 46 113 61 148 14 34 23 67 20 72 -12 19 -70 9 -183
-30z"/>
<path d="M28325 10122 c6 -5 47 -34 92 -65 111 -75 163 -85 163 -32 0 34 -30
51 -135 75 -50 12 -99 24 -110 27 -13 3 -17 2 -10 -5z"/>
<path d="M18087 10109 c-86 -20 -162 -80 -191 -151 -34 -79 -13 -188 43 -227
75 -54 261 -78 352 -46 77 28 129 95 129 167 0 79 -86 199 -172 242 -54 27
-95 31 -161 15z"/>
<path d="M24566 10110 c-64 -20 -106 -85 -106 -165 0 -95 50 -155 147 -175 59
-13 253 -9 286 5 30 12 48 62 54 148 5 77 4 85 -18 110 -51 59 -273 106 -363
77z"/>
<path d="M14874 9589 c-91 -59 -265 -211 -809 -713 -887 -819 -988 -921 -1344
-1361 -17 -21 54 45 304 279 156 146 391 354 555 491 270 225 743 660 1093
1005 265 261 291 289 281 314 -9 23 -24 20 -80 -15z"/>
<path d="M13279 6276 c-21 -49 -35 -106 -25 -106 14 0 66 96 66 122 0 41 -18
34 -41 -16z"/>
</g>
</svg>
